<svg xmlns="http://www.w3.org/2000/svg" xmlns:xlink="http://www.w3.org/1999/xlink" width="200" height="200" viewBox="0 0 200 200" fill="none"><rect x="0" y="0" width="0" height="0" fill="rgba(249, 249, 249, 1)" /><defs><rect id="path_0" x="0" y="0" width="200" height="200" /></defs><g opacity="1" transform="translate(0 0)  rotate(0 100 100)"><rect fill="#FFFFFF" opacity="1" transform="translate(0 0)  rotate(0 100 100)" x="0" y="0" width="200" height="200" rx="0" /><mask id="bg-mask-0" fill="white"><use xlink:href="#path_0"></use></mask><g mask="url(#bg-mask-0)" ><path id="矩形 1" fill-rule="evenodd" style="fill:#C4C4C4" transform="translate(0 0)  rotate(0 100 16)" opacity="1" d="M0,32L200,32L200,0L0,0L0,32Z " /><g opacity="1" transform="translate(107 70)  rotate(0 19.5 44.5)"><text><tspan x="0" y="70" font-size="60" line-height="0" fill="#707070" opacity="1" font-family="SourceHanSansCN-Regular" letter-spacing="0" >C</tspan></text></g></g></g><path id="矩形 2" fill-rule="evenodd" style="fill:#C4C4C4" transform="translate(0 31)  rotate(0 30 84.5)" opacity="1" d="M0,169L60,169L60,0L0,0L0,169Z " /></svg>