<?xml version="1.0" standalone="no"?><!DOCTYPE svg PUBLIC "-//W3C//DTD SVG 1.1//EN" "http://www.w3.org/Graphics/SVG/1.1/DTD/svg11.dtd"><svg t="1646030586872" class="icon" viewBox="0 0 1199 1024" version="1.1" xmlns="http://www.w3.org/2000/svg" p-id="11772" xmlns:xlink="http://www.w3.org/1999/xlink" width="234.1796875" height="200"><defs><style type="text/css"></style></defs><path d="M69.199453 0h1060.89838A70.958423 70.958423 0 0 1 1199.297287 69.199453v133.761624H0V69.199453A70.958423 70.958423 0 0 1 69.199453 0z m23.066485 69.199453v69.039548h92.225961V69.199453z m161.425415 0v69.039548h92.265938V69.199453z m161.425415 0v69.039548h92.265937V69.199453z m285.992426 433.585946h-36.89838v133.761624h36.89838c55.367558 0 78.434043-13.831895 78.434042-64.56217 0-55.367558-23.066484-69.199453-78.434042-69.199454z m-364.386492 4.637283l-50.730276 147.593519h106.097834l-50.770252-147.593519z m0 0" fill="#3065bc" p-id="11773"></path><path d="M0 281.39512v696.351981c0 27.663791 18.429202 46.132969 46.132969 46.132969h1107.031349c27.663791 0.159906 46.132969-18.149366 46.132969-46.132969V281.39512z m447.417841 535.046496l-32.301073-92.225961H262.925942l-32.301074 96.863244H138.398907l142.956236-383.015577h110.735117l142.996213 382.855671h-87.668632z m267.563225-115.292446h-46.132969v119.929729h-83.031349v-383.015577h129.164318c115.292446 0 152.190826 36.89838 152.190825 129.164318-4.597306 96.863244-46.132969 133.761624-152.190825 133.761624zM1019.402694 816.441616h-83.031349v-382.815694H1019.402694z m0 0" fill="#3065bc" p-id="11774"></path></svg>