<?xml version="1.0" standalone="no"?><!DOCTYPE svg PUBLIC "-//W3C//DTD SVG 1.1//EN" "http://www.w3.org/Graphics/SVG/1.1/DTD/svg11.dtd"><svg t="1646030571226" class="icon" viewBox="0 0 1024 1024" version="1.1" xmlns="http://www.w3.org/2000/svg" p-id="11156" xmlns:xlink="http://www.w3.org/1999/xlink" width="200" height="200"><defs><style type="text/css"></style></defs><path d="M90.352941 951.717647c0 36.141176 24.094118 60.235294 60.235294 60.235294h722.82353c36.141176 0 60.235294-24.094118 60.235294-60.235294v-542.117647c0-36.141176-24.094118-60.235294-60.235294-60.235294H391.529412v-60.235294c0-66.258824 54.211765-120.470588 120.470588-120.470588 36.141176 0 66.258824 12.047059 90.352941 42.164705l42.164706 42.164706 90.352941-78.305882-42.164706-48.188235C644.517647 78.305882 578.258824 48.188235 512 48.188235c-132.517647 0-240.941176 108.423529-240.941176 240.941177v60.235294H150.588235c-36.141176 0-60.235294 24.094118-60.235294 60.235294v542.117647z m421.647059-421.647059c66.258824 0 120.470588 54.211765 120.470588 120.470588 0 42.164706-24.094118 84.329412-60.235294 102.4v78.305883H451.764706v-78.305883c-36.141176-18.070588-60.235294-60.235294-60.235294-102.4 0-66.258824 54.211765-120.470588 120.470588-120.470588z" fill="#F56C6C" p-id="11157"></path></svg>