<?xml version="1.0" standalone="no"?><!DOCTYPE svg PUBLIC "-//W3C//DTD SVG 1.1//EN" "http://www.w3.org/Graphics/SVG/1.1/DTD/svg11.dtd"><svg t="1646033597956" class="icon" viewBox="0 0 1024 1024" version="1.1" xmlns="http://www.w3.org/2000/svg" p-id="31792" xmlns:xlink="http://www.w3.org/1999/xlink" width="200" height="200"><defs><style type="text/css"></style></defs><path d="M615.1 706L859 462.1c9.5-9.5 9.5-25 0-34.6L694.6 263.1c-9.5-9.5-25-9.5-34.6 0l-122 122 39.7 39.7 82.2-82.2c9.5-9.5 25-9.5 34.6 0l84.6 84.6c9.5 9.5 9.5 25 0 34.6L614.8 626.2c-9.5 9.5-25 9.5-34.6 0l-84.6-84.6c-9.5-9.5-9.5-25 0-34.6l6.1-6.1-39.7-39.8-45.9 45.9c-9.5 9.5-9.5 25 0 34.6L580.5 706c9.5 9.6 25 9.6 34.6 0z" fill="#ef885a" p-id="31793"></path><path d="M406.8 315.9L162.9 559.8c-9.5 9.5-9.5 25 0 34.6l164.4 164.4c9.5 9.5 25 9.5 34.6 0l122-122-39.7-39.7-82.2 82.2c-9.5 9.5-25 9.5-34.6 0l-84.6-84.6c-9.5-9.5-9.5-25 0-34.6l164.4-164.4c9.5-9.5 25-9.5 34.6 0l84.6 84.6c9.5 9.5 9.5 25 0 34.6l-6.1 6.1 39.7 39.7 45.9-45.9c9.5-9.5 9.5-25 0-34.6L441.4 315.9c-9.5-9.6-25-9.6-34.6 0z" fill="#ef885a" p-id="31794"></path></svg>