<?xml version="1.0" standalone="no"?><!DOCTYPE svg PUBLIC "-//W3C//DTD SVG 1.1//EN" "http://www.w3.org/Graphics/SVG/1.1/DTD/svg11.dtd"><svg t="1646039788263" class="icon" viewBox="0 0 1024 1024" version="1.1" xmlns="http://www.w3.org/2000/svg" p-id="34752" xmlns:xlink="http://www.w3.org/1999/xlink" width="200" height="200"><defs><style type="text/css"></style></defs><path d="M160.256 816.64C116.224 872.448 102.4 921.6 102.4 921.6s49.152-13.824 104.96-57.856c22.016-17.408 128-112.64 200.704-174.08l-73.728-73.728c-61.44 72.704-157.184 178.688-174.08 200.704z m488.448-607.232L471.552 334.336l218.112 218.112 124.928-177.152 15.872 15.872c20.992 20.992 54.784 20.992 75.776 0s20.992-54.784 0-75.776l-197.12-197.12c-20.992-20.992-54.784-20.992-75.776 0-20.992 20.992-20.992 54.784 0 75.776l15.36 15.36zM217.088 353.792c-16.384 20.992-15.36 51.712 4.096 70.656L599.04 802.304c19.456 19.456 49.664 20.992 70.656 4.096L217.088 353.792zM840.704 879.104c-9.728 0-19.456-3.584-27.136-11.264l-657.92-657.408c-14.848-14.848-14.848-39.424 0-54.272 14.848-14.848 39.424-14.848 54.272 0l657.92 657.92c14.848 14.848 14.848 39.424 0 54.272-7.168 7.168-16.896 10.752-27.136 10.752z" fill="#6D6D6D" p-id="34753"></path></svg>