<?xml version="1.0" standalone="no"?><!DOCTYPE svg PUBLIC "-//W3C//DTD SVG 1.1//EN" "http://www.w3.org/Graphics/SVG/1.1/DTD/svg11.dtd"><svg t="1646031623995" class="icon" viewBox="0 0 1024 1024" version="1.1" xmlns="http://www.w3.org/2000/svg" p-id="26157" xmlns:xlink="http://www.w3.org/1999/xlink" width="200" height="200"><defs><style type="text/css"></style></defs><path d="M512 1024C229.248 1024 0 794.752 0 512S229.248 0 512 0s512 229.248 512 512-229.248 512-512 512z m0-572.330667L300.629333 240.213333a42.538667 42.538667 0 0 0-60.16 0.213334 42.410667 42.410667 0 0 0-0.213333 60.16L451.669333 512 240.213333 723.370667a42.538667 42.538667 0 0 0 0.213334 60.16 42.410667 42.410667 0 0 0 60.16 0.213333L512 572.330667l211.370667 211.413333a42.538667 42.538667 0 0 0 60.16-0.213333 42.410667 42.410667 0 0 0 0.213333-60.16L572.330667 512l211.413333-211.370667a42.538667 42.538667 0 0 0-0.213333-60.16 42.410667 42.410667 0 0 0-60.16-0.213333L512 451.669333z" p-id="26158"></path></svg>
