<?xml version="1.0" standalone="no"?><!DOCTYPE svg PUBLIC "-//W3C//DTD SVG 1.1//EN" "http://www.w3.org/Graphics/SVG/1.1/DTD/svg11.dtd"><svg t="1646031650704" class="icon" viewBox="0 0 1024 1024" version="1.1" xmlns="http://www.w3.org/2000/svg" p-id="27754" xmlns:xlink="http://www.w3.org/1999/xlink" width="200" height="200"><defs><style type="text/css"></style></defs><path d="M804.571429 413.257143a36.571429 36.571429 0 0 1 36.571428 36.571428V804.571429a36.571429 36.571429 0 0 1-36.571428 36.571428H219.428571a36.571429 36.571429 0 0 1-36.571428-36.571428v-354.742858a36.571429 36.571429 0 0 1 36.571428-36.571428h585.142858z m-343.771429 114.102857a29.622857 29.622857 0 1 0-41.910857 41.874286l51.2 51.163428-51.2 51.2A29.622857 29.622857 0 0 0 460.8 713.508571l51.2-51.2 51.2 51.2a29.622857 29.622857 0 1 0 41.910857-41.874285l-51.2-51.236572 51.2-51.2A29.622857 29.622857 0 1 0 563.2 527.36L512 578.486857zM252.342857 281.6h519.314286a36.571429 36.571429 0 0 1 36.571428 36.571429v62.171428H215.771429V318.171429a36.571429 36.571429 0 0 1 36.571428-36.571429zM318.171429 182.857143h387.657142a36.571429 36.571429 0 0 1 36.571429 36.571428v29.257143H281.6V219.428571a36.571429 36.571429 0 0 1 36.571429-36.571428z" p-id="27755"></path></svg>
