<?xml version="1.0" standalone="no"?><!DOCTYPE svg PUBLIC "-//W3C//DTD SVG 1.1//EN" "http://www.w3.org/Graphics/SVG/1.1/DTD/svg11.dtd"><svg t="1646030390365" class="icon" viewBox="0 0 1024 1024" version="1.1" xmlns="http://www.w3.org/2000/svg" p-id="4792" xmlns:xlink="http://www.w3.org/1999/xlink" width="200" height="200"><defs><style type="text/css"></style></defs><path d="M989.8496 52.0192c18.8928 0 34.1504 15.2576 34.1504 34.0992v494.1312a34.1504 34.1504 0 0 1-34.1504 34.1504H34.1504A34.1504 34.1504 0 0 1 0 580.2496v-494.08c0-18.8928 15.2576-34.1504 34.1504-34.1504zM921.6 153.6H102.4v358.4h819.2V153.6z" p-id="4793" fill="#1296db"></path><path d="M921.6 669.9008c13.056 0 23.1936 2.4064 30.1056 6.9632l8.2944 211.4048-874.6496 21.3504L64 691.2c18.5856-17.408 30.1056-21.2992 38.4-21.2992 8.2944 0 19.8144 3.8912 28.5184 9.728l9.8816 152.3712h742.4V691.2c15.2064-18.944 25.344-21.2992 38.4-21.2992zM697.4976 417.1776a34.048 34.048 0 0 0 48.7936 0l131.4304-134.4a34.1504 34.1504 0 0 0-48.7936-47.7184L721.92 344.5248 614.7584 235.008a34.0992 34.0992 0 0 0-48.7936 47.7184l131.4816 134.4z" p-id="4794" fill="#1296db"></path></svg>