<svg xmlns="http://www.w3.org/2000/svg" xmlns:xlink="http://www.w3.org/1999/xlink" width="200" height="200" viewBox="0 0 200 200" fill="none"><rect x="0" y="0" width="0" height="0" fill="rgba(249, 249, 249, 1)" /><defs><rect id="path_0" x="0" y="0" width="200" height="200" /></defs><g opacity="1" transform="translate(0 0)  rotate(0 100 100)"><rect fill="#FFFFFF" opacity="1" transform="translate(0 0)  rotate(0 100 100)" x="0" y="0" width="200" height="200" rx="0" /><mask id="bg-mask-0" fill="white"><use xlink:href="#path_0"></use></mask><g mask="url(#bg-mask-0)" ><path id="矩形 1" fill-rule="evenodd" style="fill:#3D3B3B" transform="translate(0 0)  rotate(0 100 20.5)" opacity="1" d="M0,41L200,41L200,0L0,0L0,41Z " /></g></g><path id="矩形 1" fill-rule="evenodd" style="fill:#3D3B3B" transform="translate(0 29)  rotate(0 34.5 85.5)" opacity="1" d="M0,171L69,171L69,0L0,0L0,171Z " /><path id="矩形 2" fill-rule="evenodd" style="fill:#D6D4D4" transform="translate(69 41)  rotate(0 65.5 79.5)" opacity="1" d="M0,159L131,159L131,0L0,0L0,159Z " /></svg>