<?xml version="1.0" standalone="no"?><!DOCTYPE svg PUBLIC "-//W3C//DTD SVG 1.1//EN" "http://www.w3.org/Graphics/SVG/1.1/DTD/svg11.dtd"><svg t="1646030773925" class="icon" viewBox="0 0 1024 1024" version="1.1" xmlns="http://www.w3.org/2000/svg" p-id="18648" xmlns:xlink="http://www.w3.org/1999/xlink" width="200" height="200"><defs><style type="text/css"></style></defs><path d="M921.764 518.884l-412.854-386.018-412.854 384.884c-8.077 7.53-8.527 20.193-0.979 28.261 7.54 8.063 20.218 8.518 28.289 0.971l385.514-359.379 385.531 360.473c3.868 3.614 8.778 5.4 13.678 5.4 5.335 0 10.673-2.119 14.61-6.336 7.555-8.063 7.139-20.714-0.936-28.256l0 0zM921.764 518.884zM795.781 526.813c-11.05 0-20.015 8.959-20.015 19.995l0 306.597-160.123 0 0-213.284-213.495 0 0 213.284-160.118 0 0-306.597c0-11.036-8.955-19.995-20.014-19.995-11.065 0-20.018 8.959-20.018 19.995l0 346.586 240.183 0 0-213.283 133.434 0 0 213.283 240.177 0 0-346.586c0.001-11.036-8.965-19.995-20.011-19.995l0 0zM795.781 526.813zM655.677 240.214l120.089 0 0 106.64c0 11.053 8.965 20 20.015 20 11.047 0 20.012-8.947 20.012-20l0-146.629-160.117 0c-11.053 0-20.018 8.942-20.018 19.995-0.001 11.049 8.965 19.995 20.018 19.995l0 0zM655.677 240.214z" p-id="18649" fill="#3cb8ed"></path></svg>