<?xml version="1.0" standalone="no"?><!DOCTYPE svg PUBLIC "-//W3C//DTD SVG 1.1//EN" "http://www.w3.org/Graphics/SVG/1.1/DTD/svg11.dtd"><svg t="1649987379454" class="icon" viewBox="0 0 1024 1024" version="1.1" xmlns="http://www.w3.org/2000/svg" p-id="8159" xmlns:xlink="http://www.w3.org/1999/xlink" width="30" height="30"><defs><style type="text/css">@font-face { font-family: feedback-iconfont; src: url("//at.alicdn.com/t/font_1031158_u69w8yhxdu.woff2?t=1630033759944") format("woff2"), url("//at.alicdn.com/t/font_1031158_u69w8yhxdu.woff?t=1630033759944") format("woff"), url("//at.alicdn.com/t/font_1031158_u69w8yhxdu.ttf?t=1630033759944") format("truetype"); }
</style></defs><path d="M857.6 1024H166.4C76.8 1024 0 947.2 0 857.6V166.4C0 76.8 76.8 0 166.4 0h688C947.2 0 1024 76.8 1024 166.4v688C1024 947.2 947.2 1024 857.6 1024z" fill="#4E8DF6" p-id="8160"></path><path d="M160 278.4c0 105.6 115.2 185.6 230.4 118.4 35.2-22.4 57.6-60.8 57.6-105.6v-19.2c0-48-22.4-92.8-64-115.2-112-60.8-224 16-224 121.6z" fill="#FFFFFF" p-id="8161"></path><path d="M886.4 521.6c-64-64-166.4-64-227.2 0l-496 492.8L153.6 1024h700.8c92.8 0 166.4-76.8 166.4-166.4V659.2l-134.4-137.6z" fill="#2166CC" p-id="8162"></path><path d="M694.4 1024L339.2 665.6c-64-64-166.4-64-227.2 0L0 780.8v76.8c0 89.6 76.8 166.4 166.4 166.4h528z" fill="#629FF9" p-id="8163"></path><path d="M769.856 79.1808l-7.5776-7.488-4.1088 4.1728 4.864 2.0864c-1.8688 4.5696-4.0064 9.4464-6.3872 14.6048l13.2096-13.376z m11.968 17.5744l2.3424 4.864 4.096-4.16-7.5648-7.4624L767.744 103.296c5.0688-2.2528 9.8304-4.4288 14.08-6.528z m-16.896 9.152l-4.0576 4.1088 7.5776 7.5008 11.264-11.264c-4.1344 1.9328-8.256 3.7632-12.3392 5.4528l-2.4448-5.7984z m-10.496-11.264l-6.4512-2.816c2.3552-4.2368 4.5056-8.384 6.4384-12.4416L742.4 91.7504l7.5776 7.488 4.4416-4.5952zM787.9808 0H460.8l563.2 563.2V236.0064L787.9936 0z m94.2208 181.6832l17.2032 1.6384a768.6912 768.6912 0 0 1 0 31.3472l-19.2256-1.6384c0.6912-7.7696 1.3568-18.2144 1.9968-31.3472h0.0256zM674.816 135.168a179.5456 179.5456 0 0 0 22.528-10.9824l4.928 10.1632a248.832 248.832 0 0 1-22.912 10.9312l-4.544-10.112z m17.2032 19.1744c4.3776-6.1184 8.32-12.5184 11.8272-19.1744l8.8448 5.2992a223.744 223.744 0 0 1-11.264 19.712l-9.408-5.8368z m15.4368 11.264c3.3792-7.0016 6.3744-13.9136 8.9856-20.7488l9.2544 4.3904a310.6816 310.6816 0 0 1-8.128 21.0304l-10.112-4.672z m69.184 51.904c-5.632 1.088-12.1984 2.56-19.712 4.4416-1.216-15.5264 4.8-33.2032 18.048-53.0432a90.2784 90.2784 0 0 1-54.592 18.816c0.9728-6.4 1.5488-12.864 1.7152-19.328 1.3824 0 2.816 0.1664 4.0832 0.192 1.3056-4.8256 2.3296-9.728 3.072-14.6688l8.9728 2.56a1636.1856 1636.1856 0 0 0-44.2368-37.1712l8.9856-11.6224 20.3008 18.496 5.2736-5.0944-17.2928-17.0624 8.6144-8.8192 17.28 17.0624 4.6592-4.736-16.3072-16.0384 36.2752-36.608L805.248 97.792l-36.2624 36.608-16.256-16.1408-4.6976 4.7872 17.4848 17.2672-8.576 8.704-17.3568-17.28-4.6464 4.736 20.2496 17.792a118.4768 118.4768 0 0 0-9.7792 8.448l-6.2976-5.4528c-0.4224 3.5968-1.0496 7.168-1.8688 10.7008 14.4384-1.8816 30.2336-10.2656 47.36-25.152l-9.9072-9.7664 11.968-12.1088 10.56 10.4192c8.2304-8.064 16.384-16.2048 24.4736-24.4096l12.224 12.0448a1129.2288 1129.2288 0 0 1-24.576 24.3328l18.496 18.2528-11.968 12.1088-16.896-16.896c-16.2432 21.5296-23.6416 41.7664-22.1952 60.7104h-0.128z m65.4464-86.0288c-1.4848 7.68-3.3664 15.2704-5.632 22.7456l-14.9504-4.9792c3.072-8.2944 5.568-15.9488 7.4624-22.9504l13.0944 5.0432 0.0256 0.128z m-30.208 124.3776c4.48-0.1792 8.704-2.0864 11.8144-5.3248l30.5024-30.8864-9.4336-9.3184 11.8528-12.032 21.7472 21.3504-32.704 33.2288 20.608 0.7936a103.0144 103.0144 0 0 0-7.3344 15.0272 401.4848 401.4848 0 0 0-48.5248 2.4832l1.4592-15.3216z m116.5184-1.2416c-24.7808 30.0416-33.8432 57.408-27.2 82.1248a623.616 623.616 0 0 0-23.04 5.0048 92.5056 92.5056 0 0 1 14.08-60.1472 111.872 111.872 0 0 1-61.3632 13.376c2.0736-7.2192 3.5968-14.5792 4.5696-22.016 19.712 1.8688 35.6608-0.4352 47.872-6.9376 12.1984-6.4896 29.824-21.632 52.8768-45.44l13.7984 13.5936a558.5152 558.5152 0 0 1-21.5936 20.4416z" fill="#FFFFFF" p-id="8164"></path><path d="M857.6 1024H166.4C76.8 1024 0 947.2 0 857.6V166.4C0 76.8 76.8 0 166.4 0h688C947.2 0 1024 76.8 1024 166.4v688C1024 947.2 947.2 1024 857.6 1024z" fill="#BFBFBF" p-id="8165"></path><path d="M160 278.4c0 105.6 115.2 185.6 230.4 118.4 35.2-22.4 57.6-60.8 57.6-105.6v-19.2c0-48-22.4-92.8-64-115.2-112-60.8-224 16-224 121.6z" fill="#FFFFFF" p-id="8166"></path><path d="M886.4 521.6c-64-64-166.4-64-227.2 0l-496 492.8L153.6 1024h700.8c92.8 0 166.4-76.8 166.4-166.4V659.2l-134.4-137.6z" fill="#B2B2B2" p-id="8167"></path><path d="M694.4 1024L339.2 665.6c-64-64-166.4-64-227.2 0L0 780.8v76.8c0 89.6 76.8 166.4 166.4 166.4h528z" fill="#DDDDDD" p-id="8168"></path></svg>