<?xml version="1.0" standalone="no"?><!DOCTYPE svg PUBLIC "-//W3C//DTD SVG 1.1//EN" "http://www.w3.org/Graphics/SVG/1.1/DTD/svg11.dtd"><svg t="1646030651992" class="icon" viewBox="0 0 1024 1024" version="1.1" xmlns="http://www.w3.org/2000/svg" p-id="14869" xmlns:xlink="http://www.w3.org/1999/xlink" width="200" height="200"><defs><style type="text/css"></style></defs><path d="M939.1043 844.3996 569.4669 211.5113c-30.8408-30.8408-80.8438-30.8408-111.6846 0L88.1418 844.3996c-30.8408 30.8408-30.8408 80.8468 0 111.6877h850.9634560000001C969.9512 925.2465 969.9512 875.2404 939.1043 844.3996zM479.5791 438.7103c0-24.4603 19.8298-44.29 44.29-44.29 24.4603 0 44.29 19.8298 44.29 44.29v206.68620800000002c0 24.4603-19.8298 44.29-44.29 44.29-24.4603 0-44.29-19.8298-44.29-44.29V438.71027200000003zM524.1313 837.5828c-24.4603 0-44.287-19.8267-44.287-44.29 0-24.4603 19.8267-44.287 44.287-44.287 24.4623 0 44.29 19.8267 44.29 44.287C568.4214 817.7551 548.5947 837.5828 524.1313 837.5828z" p-id="14870" fill="#d81e06"></path></svg>