<svg xmlns="http://www.w3.org/2000/svg" xmlns:xlink="http://www.w3.org/1999/xlink" width="200" height="200" viewBox="0 0 200 200" fill="none"><rect x="0" y="0" width="0" height="0" fill="rgba(249, 249, 249, 1)" /><defs><rect id="path_0" x="0" y="0" width="200" height="200" /><rect id="path_1" x="0" y="0" width="187" height="187" /></defs><g opacity="1" transform="translate(0 0)  rotate(0 100 100)"><rect fill="#FFFFFF" opacity="1" transform="translate(0 0)  rotate(0 100 100)" x="0" y="0" width="200" height="200" rx="0" /><mask id="bg-mask" fill="white"><use xlink:href="#path_0"></use></mask><g mask="url(#bg-mask)" ><g opacity="1" transform="translate(14 13)  rotate(0 93.5 93.5)"><mask id="bg-mask" fill="white"><use xlink:href="#path_1"></use></mask><g mask="url(#bg-mask)" ><path id="分组 1" fill-rule="evenodd" style="fill:#000000" transform="translate(11.6875 11.6875)  rotate(0 75.96875 75.96875)" opacity="1" d="M87.6525 81.815C90.9325 81.815 93.5025 79.245 93.5025 75.965C93.5025 72.695 90.9325 70.125 87.6525 70.125L40.9025 70.125C37.6325 70.125 35.0625 72.695 35.0625 75.965C35.0625 79.245 37.6325 81.815 40.9025 81.815L87.6525 81.815Z M23.38 0C10.52 0 0 10.52 0 23.38L0 128.56C0 141.42 10.52 151.94 23.38 151.94L128.56 151.94C141.42 151.94 151.94 141.42 151.94 128.56L151.94 23.38C151.94 10.52 141.42 0 128.56 0L23.38 0Z M140.247 23.3775C140.247 16.9475 134.988 11.6875 128.557 11.6875L23.3775 11.6875C16.9475 11.6875 11.6875 16.9475 11.6875 23.3775L11.6875 128.557C11.6875 134.988 16.9475 140.247 23.3775 140.247L128.557 140.247C134.988 140.247 140.247 134.988 140.247 128.557L140.247 23.3775Z M40.9025 35.0625C37.6325 35.0625 35.0625 37.6325 35.0625 40.9025C35.0625 44.1825 37.6325 46.7525 40.9025 46.7525L111.033 46.7525C114.302 46.7525 116.872 44.1825 116.872 40.9025C116.872 37.6325 114.302 35.0625 111.033 35.0625L40.9025 35.0625Z M40.9025 105.188C37.6325 105.188 35.0625 107.757 35.0625 111.027C35.0625 114.308 37.6325 116.878 40.9025 116.878L99.3425 116.878C102.613 116.878 105.192 114.308 105.192 111.027C105.192 107.757 102.613 105.188 99.3425 105.188L40.9025 105.188Z " /></g></g></g></g></svg>