<svg xmlns="http://www.w3.org/2000/svg" xmlns:xlink="http://www.w3.org/1999/xlink" width="200" height="200" viewBox="0 0 200 200" fill="none"><rect x="0" y="0" width="0" height="0" fill="rgba(249, 249, 249, 1)" /><defs><rect id="path_0" x="0" y="0" width="200" height="200" /><rect id="path_1" x="0" y="0" width="77" height="177" /><rect id="path_2" x="0" y="0" width="100" height="200" /></defs><g opacity="1" transform="translate(0 0)  rotate(0 100 100)"><rect fill="#FFFFFF" opacity="1" transform="translate(0 0)  rotate(0 100 100)" x="0" y="0" width="200" height="200" rx="0" /><mask id="bg-mask" fill="white"><use xlink:href="#path_0"></use></mask><g mask="url(#bg-mask)" ><g opacity="1" transform="translate(16 12)  rotate(0 38.5 88.5)"><mask id="bg-mask" fill="white"><use xlink:href="#path_1"></use></mask><g mask="url(#bg-mask)" ><path id="分组 1" fill-rule="evenodd" style="fill:#000000" transform="translate(7.8203125 29.73046875)  rotate(0 30.6796875 58.76953125)" opacity="1" d="M16.8422 3.45703C16.5122 3.45703 16.2422 4.07703 16.2422 4.83703L16.2422 14.517C16.2422 15.277 16.5122 15.907 16.8422 15.907L60.7622 15.907C61.0922 15.907 61.3622 15.277 61.3622 14.517L61.3622 4.83703C61.3622 4.07703 61.0922 3.45703 60.7622 3.45703L16.8422 3.45703Z M16.8422 52.5469C16.5122 52.5469 16.2422 53.1669 16.2422 53.9269L16.2422 63.6069C16.2422 64.3669 16.5122 64.9969 16.8422 64.9969L60.7622 64.9969C61.0922 64.9969 61.3622 64.3669 61.3622 63.6069L61.3622 53.9269C61.3622 53.1669 61.0922 52.5469 60.7622 52.5469L16.8422 52.5469Z M16.8422 101.637C16.5122 101.637 16.2422 102.257 16.2422 103.017L16.2422 112.697C16.2422 113.457 16.5122 114.087 16.8422 114.087L60.7622 114.087C61.0922 114.087 61.3622 113.457 61.3622 112.697L61.3622 103.017C61.3622 102.257 61.0922 101.637 60.7622 101.637L16.8422 101.637Z M4.21 19.36C6.54 19.36 8.42 15.02 8.42 9.68C8.42 4.34 6.54 0 4.21 0C1.89 0 0 4.34 0 9.68C0 15.02 1.89 19.36 4.21 19.36Z M4.21 68.4498C6.54 68.4498 8.42 64.1098 8.42 58.7698C8.42 53.4298 6.54 49.0898 4.21 49.0898C1.89 49.0898 0 53.4298 0 58.7698C0 64.1098 1.89 68.4498 4.21 68.4498Z M4.21 117.54C6.54 117.54 8.42 113.2 8.42 107.86C8.42 102.52 6.54 98.1797 4.21 98.1797C1.89 98.1797 0 102.52 0 107.86C0 113.2 1.89 117.54 4.21 117.54Z " /></g></g><g opacity="1" transform="translate(93 -6)  rotate(0 50 100)"><mask id="bg-mask" fill="white"><use xlink:href="#path_2"></use></mask><g mask="url(#bg-mask)" ><path id="分组 1" fill-rule="evenodd" style="fill:#000000" transform="translate(6.188867187499997 33.921874999999986)  rotate(0 43.8111328125 74.14199218750002)" opacity="1" d="M4.56 0C2.05 0 -1.77636e-15 4.1 -1.77636e-15 9.12L-1.77636e-15 139.18C-1.77636e-15 144.18 2.05 148.28 4.55 148.28L83.06 148.28C85.57 148.28 87.62 144.18 87.62 139.17L87.62 9.11C87.62 4.1 85.57 0 83.07 0L4.56 0Z M1.97139 116.082L1.97139 141.102C1.97139 143.452 2.88139 145.272 4.05139 145.272L24.9114 145.272C26.0814 145.272 26.9914 143.452 26.9914 141.102L26.9914 141.102L26.9914 116.082C26.9914 113.732 26.0814 111.912 24.9114 111.912L4.05139 111.912C2.88139 111.912 1.97139 113.732 1.97139 116.082Z M24.9114 67.9678L4.05139 67.9678C2.88139 67.9678 1.97139 69.7878 1.97139 72.1378L1.97139 97.1578C1.97139 99.5078 2.88139 101.328 4.05139 101.328L24.9114 101.328C26.0814 101.328 26.9914 99.5078 26.9914 97.1578L26.9914 97.1578L26.9914 72.1378C26.9914 69.7878 26.0814 67.9678 24.9114 67.9678Z M26.9914 28.4987C26.9914 26.1487 26.0814 24.3287 24.9114 24.3287L4.05139 24.3287C2.88139 24.3287 1.97139 26.1487 1.97139 28.4987L1.97139 53.5187C1.97139 55.8687 2.88139 57.6887 4.05139 57.6887L24.9114 57.6887C26.0814 57.6887 26.9914 55.8687 26.9914 53.5187L26.9914 53.5187L26.9914 28.4987Z M33.2966 145.272L54.1566 145.272C55.3266 145.272 56.2366 143.452 56.2366 141.102L56.2366 141.102L56.2366 116.082C56.2366 113.732 55.3266 111.912 54.1566 111.912L33.2966 111.912C32.1266 111.912 31.2166 113.732 31.2166 116.082L31.2166 141.102C31.2166 143.452 32.1266 145.272 33.2966 145.272Z M31.2166 97.1578C31.2166 99.5078 32.1266 101.328 33.2966 101.328L54.1566 101.328C55.3266 101.328 56.2366 99.5078 56.2366 97.1578L56.2366 97.1578L56.2366 72.1378C56.2366 69.7878 55.3266 67.9678 54.1566 67.9678L33.2966 67.9678C32.1266 67.9678 31.2166 69.7878 31.2166 72.1378L31.2166 97.1578Z M33.2966 24.3287C32.1266 24.3287 31.2166 26.1487 31.2166 28.4987L31.2166 53.5187C31.2166 55.8687 32.1266 57.6887 33.2966 57.6887L54.1566 57.6887C55.3266 57.6887 56.2366 55.8687 56.2366 53.5187L56.2366 53.5187L56.2366 28.4987C56.2366 26.1487 55.3266 24.3287 54.1566 24.3287L33.2966 24.3287Z M62.8471 111.912C61.6771 111.912 60.7671 113.732 60.7671 116.082L60.7671 141.102C60.7671 143.452 61.6771 145.272 62.8471 145.272L83.7071 145.272C84.8771 145.272 85.7871 143.452 85.7871 141.102L85.7871 141.102L85.7871 116.082C85.7871 113.732 84.8771 111.912 83.7071 111.912L62.8471 111.912Z M60.7671 72.1378L60.7671 97.1578C60.7671 99.5078 61.6771 101.328 62.8471 101.328L83.7071 101.328C84.8771 101.328 85.7871 99.5078 85.7871 97.1578L85.7871 97.1578L85.7871 72.1378C85.7871 69.7878 84.8771 67.9678 83.7071 67.9678L62.8471 67.9678C61.6771 67.9678 60.7671 69.7878 60.7671 72.1378Z M60.7671 28.4987L60.7671 53.5187C60.7671 55.8687 61.6771 57.6887 62.8471 57.6887L83.7071 57.6887C84.8771 57.6887 85.7871 55.8687 85.7871 53.5187L85.7871 53.5187L85.7871 28.4987C85.7871 26.1487 84.8771 24.3287 83.7071 24.3287L62.8471 24.3287C61.6771 24.3287 60.7671 26.1487 60.7671 28.4987Z " /></g></g></g></g></svg>