<svg xmlns="http://www.w3.org/2000/svg" xmlns:xlink="http://www.w3.org/1999/xlink" width="200" height="200" viewBox="0 0 200 200" fill="none"><rect x="0" y="0" width="0" height="0" fill="rgba(249, 249, 249, 1)" /><defs><rect id="path_0" x="0" y="0" width="200" height="200" /><rect id="path_1" x="0" y="0" width="200" height="100" /><rect id="path_2" x="0" y="0" width="200" height="100" /></defs><g opacity="1" transform="translate(0 0)  rotate(0 100 100)"><rect fill="#FFFFFF" opacity="1" transform="translate(0 0)  rotate(0 100 100)" x="0" y="0" width="200" height="200" rx="0" /><mask id="bg-mask" fill="white"><use xlink:href="#path_0"></use></mask><g mask="url(#bg-mask)" ><g opacity="1" transform="translate(0 2)  rotate(0 100 50)"><mask id="bg-mask" fill="white"><use xlink:href="#path_1"></use></mask><g mask="url(#bg-mask)" ><path id="分组 1" fill-rule="evenodd" style="fill:#000000" transform="translate(12.377734374999994 16.960937499999993)  rotate(0 87.622265625 37.07099609375001)" opacity="1" d="M9.12 0C4.1 0 -3.55271e-15 2.05 -3.55271e-15 4.56L-3.55271e-15 69.59C-3.55271e-15 72.09 4.1 74.14 9.11 74.14L166.13 74.14C171.14 74.14 175.24 72.09 175.24 69.58L175.24 4.55C175.24 2.05 171.15 0 166.14 0L9.12 0Z M53.9928 70.5561L53.9928 58.0461C53.9928 56.8661 52.1628 55.9561 49.8228 55.9561L8.10277 55.9561C5.76277 55.9561 3.94277 56.8661 3.94277 58.0461L3.94277 70.5561C3.94277 71.7261 5.76277 72.6361 8.10277 72.6361L49.8228 72.6361C52.1628 72.6361 53.9928 71.7261 53.9928 70.5561Z M3.94277 48.5839C3.94277 49.7539 5.76277 50.6639 8.10277 50.6639L49.8228 50.6639C52.1628 50.6639 53.9928 49.7539 53.9928 48.5839L53.9928 36.0739C53.9928 34.8939 52.1628 33.9839 49.8228 33.9839L8.10277 33.9839C5.76277 33.9839 3.94277 34.8939 3.94277 36.0739L3.94277 48.5839Z M3.94277 14.2544L3.94277 26.7644C3.94277 27.9344 5.76277 28.8444 8.10277 28.8444L49.8228 28.8444C52.1628 28.8444 53.9928 27.9344 53.9928 26.7644L53.9928 14.2544C53.9928 13.0744 52.1628 12.1644 49.8228 12.1644L8.10277 12.1644C5.76277 12.1644 3.94277 13.0744 3.94277 14.2544Z M112.483 70.5561L112.483 58.0461C112.483 56.8661 110.653 55.9561 108.313 55.9561L66.5932 55.9561C64.2532 55.9561 62.4332 56.8661 62.4332 58.0461L62.4332 70.5561C62.4332 71.7261 64.2532 72.6361 66.5932 72.6361L108.313 72.6361C110.653 72.6361 112.483 71.7261 112.483 70.5561Z M62.4332 48.5839C62.4332 49.7539 64.2532 50.6639 66.5932 50.6639L108.313 50.6639C110.653 50.6639 112.483 49.7539 112.483 48.5839L112.483 36.0739C112.483 34.8939 110.653 33.9839 108.313 33.9839L66.5932 33.9839C64.2532 33.9839 62.4332 34.8939 62.4332 36.0739L62.4332 48.5839Z M66.5932 12.1644C64.2532 12.1644 62.4332 13.0744 62.4332 14.2544L62.4332 26.7644C62.4332 27.9344 64.2532 28.8444 66.5932 28.8444L108.313 28.8444C110.653 28.8444 112.483 27.9344 112.483 26.7644L112.483 14.2544C112.483 13.0744 110.653 12.1644 108.313 12.1644L66.5932 12.1644Z M167.414 55.9561L125.694 55.9561C123.354 55.9561 121.534 56.8661 121.534 58.0461L121.534 70.5561C121.534 71.7261 123.354 72.6361 125.694 72.6361L167.414 72.6361C169.754 72.6361 171.584 71.7261 171.584 70.5561L171.584 70.5561L171.584 58.0461C171.584 56.8661 169.754 55.9561 167.414 55.9561Z M167.414 33.9839L125.694 33.9839C123.354 33.9839 121.534 34.8939 121.534 36.0739L121.534 48.5839C121.534 49.7539 123.354 50.6639 125.694 50.6639L167.414 50.6639C169.754 50.6639 171.584 49.7539 171.584 48.5839L171.584 48.5839L171.584 36.0739C171.584 34.8939 169.754 33.9839 167.414 33.9839Z M167.414 12.1644L125.694 12.1644C123.354 12.1644 121.534 13.0744 121.534 14.2544L121.534 26.7644C121.534 27.9344 123.354 28.8444 125.694 28.8444L167.414 28.8444C169.754 28.8444 171.584 27.9344 171.584 26.7644L171.584 26.7644L171.584 14.2544C171.584 13.0744 169.754 12.1644 167.414 12.1644Z " /></g></g><g opacity="1" transform="translate(0 88)  rotate(0 100 50)"><mask id="bg-mask" fill="white"><use xlink:href="#path_2"></use></mask><g mask="url(#bg-mask)" ><path id="分组 1" fill-rule="evenodd" style="fill:#000000" transform="translate(12.377734374999994 16.960937499999993)  rotate(0 87.622265625 37.07099609375001)" opacity="1" d="M9.12 0C4.1 0 -3.55271e-15 2.05 -3.55271e-15 4.56L-3.55271e-15 69.59C-3.55271e-15 72.09 4.1 74.14 9.11 74.14L166.13 74.14C171.14 74.14 175.24 72.09 175.24 69.58L175.24 4.55C175.24 2.05 171.15 0 166.14 0L9.12 0Z M53.9928 58.0461C53.9928 56.8661 52.1628 55.9561 49.8228 55.9561L8.10277 55.9561C5.76277 55.9561 3.94277 56.8661 3.94277 58.0461L3.94277 70.5561C3.94277 71.7261 5.76277 72.6361 8.10277 72.6361L49.8228 72.6361C52.1628 72.6361 53.9928 71.7261 53.9928 70.5561L53.9928 58.0461Z M53.9928 48.5839L53.9928 36.0739C53.9928 34.8939 52.1628 33.9839 49.8228 33.9839L8.10277 33.9839C5.76277 33.9839 3.94277 34.8939 3.94277 36.0739L3.94277 48.5839C3.94277 49.7539 5.76277 50.6639 8.10277 50.6639L49.8228 50.6639C52.1628 50.6639 53.9928 49.7539 53.9928 48.5839Z M3.94277 26.7644C3.94277 27.9344 5.76277 28.8444 8.10277 28.8444L49.8228 28.8444C52.1628 28.8444 53.9928 27.9344 53.9928 26.7644L53.9928 14.2544C53.9928 13.0744 52.1628 12.1644 49.8228 12.1644L8.10277 12.1644C5.76277 12.1644 3.94277 13.0744 3.94277 14.2544L3.94277 26.7644Z M62.4332 70.5561C62.4332 71.7261 64.2532 72.6361 66.5932 72.6361L108.313 72.6361C110.653 72.6361 112.483 71.7261 112.483 70.5561L112.483 58.0461C112.483 56.8661 110.653 55.9561 108.313 55.9561L66.5932 55.9561C64.2532 55.9561 62.4332 56.8661 62.4332 58.0461L62.4332 70.5561Z M112.483 36.0739C112.483 34.8939 110.653 33.9839 108.313 33.9839L66.5932 33.9839C64.2532 33.9839 62.4332 34.8939 62.4332 36.0739L62.4332 48.5839C62.4332 49.7539 64.2532 50.6639 66.5932 50.6639L108.313 50.6639C110.653 50.6639 112.483 49.7539 112.483 48.5839L112.483 36.0739Z M112.483 26.7644L112.483 14.2544C112.483 13.0744 110.653 12.1644 108.313 12.1644L66.5932 12.1644C64.2532 12.1644 62.4332 13.0744 62.4332 14.2544L62.4332 26.7644C62.4332 27.9344 64.2532 28.8444 66.5932 28.8444L108.313 28.8444C110.653 28.8444 112.483 27.9344 112.483 26.7644Z M125.694 72.6361L167.414 72.6361C169.754 72.6361 171.584 71.7261 171.584 70.5561L171.584 70.5561L171.584 58.0461C171.584 56.8661 169.754 55.9561 167.414 55.9561L125.694 55.9561C123.354 55.9561 121.534 56.8661 121.534 58.0461L121.534 70.5561C121.534 71.7261 123.354 72.6361 125.694 72.6361Z M167.414 50.6639C169.754 50.6639 171.584 49.7539 171.584 48.5839L171.584 48.5839L171.584 36.0739C171.584 34.8939 169.754 33.9839 167.414 33.9839L125.694 33.9839C123.354 33.9839 121.534 34.8939 121.534 36.0739L121.534 48.5839C121.534 49.7539 123.354 50.6639 125.694 50.6639L167.414 50.6639Z M125.694 28.8444L167.414 28.8444C169.754 28.8444 171.584 27.9344 171.584 26.7644L171.584 26.7644L171.584 14.2544C171.584 13.0744 169.754 12.1644 167.414 12.1644L125.694 12.1644C123.354 12.1644 121.534 13.0744 121.534 14.2544L121.534 26.7644C121.534 27.9344 123.354 28.8444 125.694 28.8444Z " /></g></g></g></g></svg>