<?xml version="1.0" standalone="no"?><!DOCTYPE svg PUBLIC "-//W3C//DTD SVG 1.1//EN" "http://www.w3.org/Graphics/SVG/1.1/DTD/svg11.dtd"><svg t="1597239757530" class="icon" viewBox="0 0 1024 1024" version="1.1" xmlns="http://www.w3.org/2000/svg" p-id="1405" xmlns:xlink="http://www.w3.org/1999/xlink" width="200" height="200"><defs><style type="text/css"></style></defs><path d="M497 90c246.319 0 446 199.681 446 446S743.319 982 497 982 51 782.319 51 536 250.681 90 497 90z m252.624 269.35c-11.672-11.672-30.595-11.672-42.266 0L420.044 646.66 286.748 513.39l-0.561-0.547c-11.71-11.12-30.22-10.936-41.705 0.55-11.67 11.673-11.669 30.597 0.004 42.267l150.452 150.428a30.046 30.046 0 0 0 3.601 4.347c11.672 11.672 30.595 11.672 42.266 0l-0.419 0.412a30.418 30.418 0 0 0 1.44-1.428l307.798-307.802 0.547-0.561c11.121-11.71 10.939-30.219-0.547-41.705z" fill="#1296db" p-id="1406"></path></svg>