<?xml version="1.0" standalone="no"?><!DOCTYPE svg PUBLIC "-//W3C//DTD SVG 1.1//EN" "http://www.w3.org/Graphics/SVG/1.1/DTD/svg11.dtd"><svg t="1649917467509" class="icon" viewBox="0 0 1024 1024" version="1.1" xmlns="http://www.w3.org/2000/svg" p-id="4690" xmlns:xlink="http://www.w3.org/1999/xlink" width="30" height="30"><defs><style type="text/css">@font-face { font-family: feedback-iconfont; src: url("//at.alicdn.com/t/font_1031158_u69w8yhxdu.woff2?t=1630033759944") format("woff2"), url("//at.alicdn.com/t/font_1031158_u69w8yhxdu.woff?t=1630033759944") format("woff"), url("//at.alicdn.com/t/font_1031158_u69w8yhxdu.ttf?t=1630033759944") format("truetype"); }
</style></defs><path d="M897.6 296H784V288s14.4-272-272-272-272 272-272 272v8h-128c-51.2 0-96 51.2-96 110.4v499.2c0 44.8 44.8 102.4 132.8 102.4h742.4c88 0 116.8-59.2 116.8-102.4V398.4c0-59.2-44.8-102.4-110.4-102.4z m-524.8-67.2s8-102.4 132.8-102.4c124.8 0 147.2 110.4 147.2 110.4v59.2h-280v-67.2zM232 640h88c0-153.6 184-249.6 331.2-169.6l-44.8 36.8c-147.2-65.6-249.6 73.6-243.2 132.8h81.6l-110.4 110.4-102.4-110.4z m478.4 8c0 153.6-184 249.6-331.2 169.6l44.8-36.8c147.2 65.6 249.6-73.6 243.2-132.8h-81.6l110.4-110.4 96 110.4h-81.6z" p-id="4691" fill="#d81e06"></path></svg>