<?xml version="1.0" standalone="no"?><!DOCTYPE svg PUBLIC "-//W3C//DTD SVG 1.1//EN" "http://www.w3.org/Graphics/SVG/1.1/DTD/svg11.dtd"><svg t="1646030462361" class="icon" viewBox="0 0 1024 1024" version="1.1" xmlns="http://www.w3.org/2000/svg" p-id="7209" xmlns:xlink="http://www.w3.org/1999/xlink" width="200" height="200"><defs><style type="text/css"></style></defs><path d="M122.88 171.52h778.24c-9.216 0-16.384-7.168-16.384-16.384v713.728c0-9.216 7.168-16.384 16.384-16.384H122.88c9.216 0 16.384 7.168 16.384 16.384V155.648c0 8.192-6.656 15.872-16.384 15.872z m-32.768 684.544c0 26.112 20.992 47.104 47.104 47.104h750.08c26.112 0 47.104-20.992 47.104-47.104V167.936c0-26.112-20.992-47.104-47.104-47.104H137.216c-26.112 0-47.104 20.992-47.104 47.104v688.128z" p-id="7210" fill="#13227a"></path><path d="M793.6 404.48v138.24h-229.888v-46.08H379.904v-46.08h183.808v-46.08H793.6z" p-id="7211" fill="#13227a"></path><path d="M609.792 450.56H747.52v46.08h-137.728v-46.08z" p-id="7212" fill="#13227a"></path><path d="M563.712 634.368v46.08H379.904c-25.6 0-46.08-20.48-46.08-46.08V354.816c27.648-9.728 46.08-35.84 46.08-65.024 0-37.888-30.72-69.12-69.12-69.12-29.184 0-55.296 18.432-65.024 46.08-12.8 35.84 6.144 75.264 41.984 88.064v279.552c0 50.688 40.96 92.16 92.16 92.16h183.808v46.08H793.6V634.88l-229.888-0.512zM310.784 312.832c-12.8 0-23.04-10.24-23.04-23.04s10.24-23.04 23.04-23.04 23.04 10.24 23.04 23.04-10.24 23.04-23.04 23.04z m437.248 413.696h-137.728v-46.08h137.728v46.08z" p-id="7213" fill="#13227a"></path></svg>