<?xml version="1.0" standalone="no"?><!DOCTYPE svg PUBLIC "-//W3C//DTD SVG 1.1//EN" "http://www.w3.org/Graphics/SVG/1.1/DTD/svg11.dtd"><svg t="1646620279472" class="icon" viewBox="0 0 1024 1024" version="1.1" xmlns="http://www.w3.org/2000/svg" p-id="2001" xmlns:xlink="http://www.w3.org/1999/xlink" width="200" height="200"><defs><style type="text/css"></style></defs><path d="M939.4 126.5H83.3c-11 0-20 9-20 20v600c0 11 9 20 20 20h856.1c11 0 20-9 20-20v-600c0-11-9-20-20-20zM903 696.1c0 11-9 20-20 20H139.6c-11 0-20-9-20-20V197c0-11 9-20 20-20H883c11 0 20 9 20 20v499.1z" fill="#13227a" p-id="2002"></path><path d="M448 751.3h127.1v78.8H448z" fill="#13227a" p-id="2003"></path><path d="M702 894H318.7c-17.7 0-32-14.3-32-32s14.3-32 32-32H702c17.7 0 32 14.3 32 32s-14.3 32-32 32zM663.7 495.3l-19.3-11.2c-4.4-2.5-6.6-7.6-5.4-12.6 2.5-10 3.8-20.5 3.8-31.3 0-6.2-0.4-12.2-1.3-18.2-0.6-4.6 1.6-9.2 5.6-11.6l16.5-9.5c5.5-3.2 7.4-10.2 4.2-15.7l-23.5-40.7c-3.2-5.5-10.2-7.4-15.7-4.2l-12.4 7.1c-4.4 2.5-10 1.9-13.7-1.7-13.5-13.1-29.9-23.2-48.1-29.5-4.6-1.6-7.6-6-7.6-10.8v-12.2c0-6.3-5.1-11.5-11.5-11.5h-46.9c-6.3 0-11.5 5.1-11.5 11.5v11.9c0 4.9-3.1 9.3-7.7 10.9-18.3 6.3-34.9 16.5-48.5 29.6-3.7 3.5-9.2 4.2-13.6 1.6l-11.8-6.8c-5.5-3.2-12.5-1.3-15.7 4.2l-23.5 40.7c-3.2 5.5-1.3 12.5 4.2 15.7l15.8 9.1c4.1 2.3 6.3 6.9 5.6 11.6-0.8 6-1.3 12.2-1.3 18.4 0 11 1.4 21.6 3.9 31.8 1.2 5-1 10.2-5.5 12.7l-18.4 10.6c-5.5 3.2-7.4 10.2-4.2 15.7l23.5 40.7c3.2 5.5 10.2 7.4 15.7 4.2l22.9-13.2c4.1-2.3 9.1-2 12.8 0.9 11.4 8.9 24.3 15.9 38.3 20.7 4.6 1.6 7.7 5.9 7.7 10.8v28c0 6.3 5.1 11.5 11.5 11.5h46.9c6.3 0 11.5-5.1 11.5-11.5v-28.2c0-4.9 3-9.2 7.6-10.8 13.8-4.8 26.5-11.9 37.8-20.7 3.7-2.9 8.8-3.3 12.8-0.9l23.3 13.5c5.5 3.2 12.5 1.3 15.7-4.2l23.5-40.7c3.3-5.6 1.4-12.6-4-15.7zM512 506.5c-33 0-59.8-26.8-59.8-59.8s26.8-59.8 59.8-59.8 59.8 26.8 59.8 59.8-26.8 59.8-59.8 59.8z" fill="#13227a" p-id="2004"></path></svg>