<svg xmlns="http://www.w3.org/2000/svg" xmlns:xlink="http://www.w3.org/1999/xlink" width="200" height="200" viewBox="0 0 200 200" fill="none"><rect x="0" y="0" width="0" height="0" fill="rgba(249, 249, 249, 1)" /><defs><rect id="path_0" x="0" y="0" width="200" height="200" /><rect id="path_1" x="0" y="0" width="200" height="200" /></defs><g opacity="1" transform="translate(0 0)  rotate(0 100 100)"><rect fill="#FFFFFF" opacity="1" transform="translate(0 0)  rotate(0 100 100)" x="0" y="0" width="200" height="200" rx="0" /><mask id="bg-mask" fill="white"><use xlink:href="#path_0"></use></mask><g mask="url(#bg-mask)" ><g opacity="1" transform="translate(0 0)  rotate(0 100 100)"><mask id="bg-mask" fill="white"><use xlink:href="#path_1"></use></mask><g mask="url(#bg-mask)" ><path id="分组 1" fill-rule="evenodd" style="fill:#000000" transform="translate(12.377734374999992 33.921874999999986)  rotate(0 87.622265625 74.14199218750002)" opacity="1" d="M9.12 0C4.1 0 -1.77636e-15 4.1 -1.77636e-15 9.12L-1.77636e-15 139.18C-1.77636e-15 144.18 4.1 148.28 9.11 148.28L166.13 148.28C171.14 148.28 175.24 144.18 175.24 139.17L175.24 9.11C175.24 4.1 171.15 0 166.14 0L9.12 0Z M49.8228 111.912L8.10277 111.912C5.76277 111.912 3.94277 113.732 3.94277 116.082L3.94277 141.102C3.94277 143.452 5.76277 145.272 8.10277 145.272L49.8228 145.272C52.1628 145.272 53.9928 143.452 53.9928 141.102L53.9928 141.102L53.9928 116.082C53.9928 113.732 52.1628 111.912 49.8228 111.912Z M53.9928 97.1578L53.9928 97.1578L53.9928 72.1378C53.9928 69.7878 52.1628 67.9678 49.8228 67.9678L8.10277 67.9678C5.76277 67.9678 3.94277 69.7878 3.94277 72.1378L3.94277 97.1578C3.94277 99.5078 5.76277 101.328 8.10277 101.328L49.8228 101.328C52.1628 101.328 53.9928 99.5078 53.9928 97.1578Z M49.8228 24.3287L8.10277 24.3287C5.76277 24.3287 3.94277 26.1487 3.94277 28.4987L3.94277 53.5187C3.94277 55.8687 5.76277 57.6887 8.10277 57.6887L49.8228 57.6887C52.1628 57.6887 53.9928 55.8687 53.9928 53.5187L53.9928 53.5187L53.9928 28.4987C53.9928 26.1487 52.1628 24.3287 49.8228 24.3287Z M108.313 145.272C110.653 145.272 112.483 143.452 112.483 141.102L112.483 141.102L112.483 116.082C112.483 113.732 110.653 111.912 108.313 111.912L66.5932 111.912C64.2532 111.912 62.4332 113.732 62.4332 116.082L62.4332 141.102C62.4332 143.452 64.2532 145.272 66.5932 145.272L108.313 145.272Z M108.313 67.9678L66.5932 67.9678C64.2532 67.9678 62.4332 69.7878 62.4332 72.1378L62.4332 97.1578C62.4332 99.5078 64.2532 101.328 66.5932 101.328L108.313 101.328C110.653 101.328 112.483 99.5078 112.483 97.1578L112.483 97.1578L112.483 72.1378C112.483 69.7878 110.653 67.9678 108.313 67.9678Z M112.483 28.4987C112.483 26.1487 110.653 24.3287 108.313 24.3287L66.5932 24.3287C64.2532 24.3287 62.4332 26.1487 62.4332 28.4987L62.4332 53.5187C62.4332 55.8687 64.2532 57.6887 66.5932 57.6887L108.313 57.6887C110.653 57.6887 112.483 55.8687 112.483 53.5187L112.483 53.5187L112.483 28.4987Z M171.584 116.082C171.584 113.732 169.754 111.912 167.414 111.912L125.694 111.912C123.354 111.912 121.534 113.732 121.534 116.082L121.534 141.102C121.534 143.452 123.354 145.272 125.694 145.272L167.414 145.272C169.754 145.272 171.584 143.452 171.584 141.102L171.584 141.102L171.584 116.082Z M167.414 67.9678L125.694 67.9678C123.354 67.9678 121.534 69.7878 121.534 72.1378L121.534 97.1578C121.534 99.5078 123.354 101.328 125.694 101.328L167.414 101.328C169.754 101.328 171.584 99.5078 171.584 97.1578L171.584 97.1578L171.584 72.1378C171.584 69.7878 169.754 67.9678 167.414 67.9678Z M171.584 53.5187L171.584 28.4987C171.584 26.1487 169.754 24.3287 167.414 24.3287L125.694 24.3287C123.354 24.3287 121.534 26.1487 121.534 28.4987L121.534 53.5187C121.534 55.8687 123.354 57.6887 125.694 57.6887L167.414 57.6887C169.754 57.6887 171.584 55.8687 171.584 53.5187L171.584 53.5187Z " /></g></g></g></g></svg>