<svg xmlns="http://www.w3.org/2000/svg" xmlns:xlink="http://www.w3.org/1999/xlink" width="200" height="200" viewBox="0 0 200 200" fill="none"><rect x="0" y="0" width="0" height="0" fill="rgba(249, 249, 249, 1)" /><defs><rect id="path_0" x="0" y="0" width="200" height="200" /><linearGradient id="linear_0" x1="0%" y1="50%" x2="100%" y2="50%" gradientUnits="objectBoundingBox"><stop offset="0" stop-color="#BAF2FF" stop-opacity="1" /><stop offset="1" stop-color="#D187FF" stop-opacity="1" /></linearGradient><filter id="filter_4" x="29.333333398437503" y="29.333333398437503" width="149.6666666015625" height="149.6666666015625" filterUnits="userSpaceOnUse" color-interpolation-filters="sRGB"><feFlood flood-opacity="0" result="BackgroundImageFix"/>
          <feColorMatrix in="SourceAlpha" type="matrix" values="0 0 0 0 0 0 0 0 0 0 0 0 0 0 0 0 0 0 127 0"/>
          <feOffset dx="0" dy="2"/>
          <feGaussianBlur stdDeviation="2"/>
          <feColorMatrix type="matrix" values="0 0 0 0 0 0 0 0 0 0 0 0 0 0 0 0 0 0 0.5 0"/>
          <feBlend mode="normal" in2="BackgroundImageFix" result="effect1_Shadow"/>
          <feBlend mode="normal" in="SourceGraphic" in2="effect1_Shadow" result="shape"/></filter></defs><g opacity="1" transform="translate(0 0)  rotate(0 100 100)"><rect fill="#FFFFFF" opacity="1" transform="translate(0 0)  rotate(0 100 100)" x="0" y="0" width="200" height="200" rx="0" /><mask id="bg-mask-0" fill="white"><use xlink:href="#path_0"></use></mask><g mask="url(#bg-mask-0)" ><path id="路径 1" fill-rule="evenodd" style="fill:#C4C4C4" transform="translate(41.6666666015625 41.666666601562504)  rotate(0 62.5 62.5)" opacity="1" d="M0,62.5C0,80.83 6.67,88.33 22.5,93.33C24.17,94.17 25,94.17 26.67,95C27.5,95 30.83,95.83 30.83,96.67C40.83,100 45.83,101.67 50,106.67C53.33,110 55.83,114.17 58.33,118.33C59.17,120 60,121.67 60,122.5C61.67,122.5 61.67,124.17 62.5,125C97.5,125 125,96.67 125,62.5C125,28.33 96.67,0 62.5,0C28.33,0 0,28.33 0,62.5Z " /><g id="路径 2" filter="url(#filter_4)"><path id="路径 2" fill-rule="evenodd" fill="url(#linear_0)" transform="translate(33.3333333984375 33.3333333984375)  rotate(0 70.83333330078125 70.83333330078125)" opacity="1" d="M141.67,70.83C141.67,31.67 110,0 70.83,0C31.67,0 0,31.67 0,70.83C0,89.64 7.4,99.08 16.87,104.68C29.64,112.24 46.16,112.82 53.33,120C66.67,133.33 59.17,141.67 70.83,141.67C110,141.67 141.67,110 141.67,70.83Z " /></g><path id="路径 3" fill-rule="evenodd" style="fill:#0091FF" transform="translate(103.33333339843753 124.99999999999999)  rotate(0 14.99999999999999 14.583333300781243)" opacity="1" d="M30,14.17C30,6.67 23.33,0 15,0C6.67,0 0,5.83 0,14.17C0,22.5 6.67,29.17 15,29.17C23.33,29.17 30,21.67 30,14.17Z " /><path id="路径 4" fill-rule="evenodd" style="fill:#C4C4C4" transform="translate(111.66666660156244 133.3333333984375)  rotate(0 6.66666669921877 6.250000000000012)" opacity="1" d="M13.33,5.83C13.33,1.67 10.83,0 6.67,0C2.5,0 0,2.5 0,5.83C0,9.17 3.33,12.5 6.67,12.5C10,12.5 13.33,10 13.33,5.83Z " /><path id="路径 5" fill-rule="evenodd" style="fill:#F7D705" transform="translate(116.6666666015625 58.333333398437475)  rotate(0 8.333333398437492 8.33333330078126)" opacity="1" d="M16.67,8.33C16.67,3.33 13.33,0 8.33,0C3.33,0 0,3.33 0,8.33C0,13.33 3.33,16.67 8.33,16.67C13.33,16.67 16.67,13.33 16.67,8.33Z " /><path id="路径 6" fill-rule="evenodd" style="fill:#F27500" transform="translate(93.33333339843747 51.6666666015625)  rotate(0 8.333333300781254 8.333333398437503)" opacity="1" d="M16.67,8.33C16.67,3.33 13.33,0 8.33,0C3.33,0 0,3.33 0,8.33C0,13.33 3.33,16.67 8.33,16.67C13.33,16.67 16.67,13.33 16.67,8.33Z " /><path id="路径 7" fill-rule="evenodd" style="fill:#00B53C" transform="translate(133.3333333984375 74.99999999999997)  rotate(0 8.333333300781254 8.33333330078126)" opacity="1" d="M16.67,8.33C16.67,3.33 13.33,0 8.33,0C3.33,0 0,3.33 0,8.33C0,13.33 3.33,16.67 8.33,16.67C13.33,16.67 16.67,13.33 16.67,8.33Z " /><path id="路径 8" fill-rule="evenodd" style="fill:#FF0000" transform="translate(69 60)  rotate(0 8.33333330078126 8.33333330078126)" opacity="1" d="M16.67,8.33C16.67,3.33 13.33,0 8.33,0C3.33,0 0,3.33 0,8.33C0,13.33 3.33,16.67 8.33,16.67C13.33,16.67 16.67,13.33 16.67,8.33Z " /></g></g></svg>