<svg xmlns="http://www.w3.org/2000/svg" xmlns:xlink="http://www.w3.org/1999/xlink" width="200" height="200" viewBox="0 0 200 200" fill="none"><rect x="0" y="0" width="0" height="0" fill="rgba(249, 249, 249, 1)" /><defs><rect id="path_0" x="0" y="0" width="200" height="200" /><linearGradient id="linear_0" x1="0%" y1="50%" x2="100%" y2="50%" gradientUnits="objectBoundingBox"><stop offset="0" stop-color="#BAF2FF" stop-opacity="1" /><stop offset="1" stop-color="#D187FF" stop-opacity="1" /></linearGradient><filter id="filter_4" x="-3" y="-1" width="205" height="202" filterUnits="userSpaceOnUse" color-interpolation-filters="sRGB"><feFlood flood-opacity="0" result="BackgroundImageFix"/>
          <feColorMatrix in="SourceAlpha" type="matrix" values="0 0 0 0 0 0 0 0 0 0 0 0 0 0 0 0 0 0 127 0"/>
          <feOffset dx="0" dy="2"/>
          <feGaussianBlur stdDeviation="2"/>
          <feColorMatrix type="matrix" values="0 0 0 0 0 0 0 0 0 0 0 0 0 0 0 0 0 0 0.5 0"/>
          <feBlend mode="normal" in2="BackgroundImageFix" result="effect1_Shadow"/>
          <feBlend mode="normal" in="SourceGraphic" in2="effect1_Shadow" result="shape"/></filter></defs><g opacity="1" transform="translate(0 0)  rotate(0 100 100)"><mask id="bg-mask-0" fill="white"><use xlink:href="#path_0"></use></mask><g mask="url(#bg-mask-0)" ><path id="路径 1" fill-rule="evenodd" style="fill:#C4C4C4" transform="translate(41.6666666015625 41.666666601562504)  rotate(0 62.5 62.5)" opacity="0" d="M0,62.5C0,80.83 6.67,88.33 22.5,93.33C24.17,94.17 25,94.17 26.67,95C27.5,95 30.83,95.83 30.83,96.67C40.83,100 45.83,101.67 50,106.67C53.33,110 55.83,114.17 58.33,118.33C59.17,120 60,121.67 60,122.5C61.67,122.5 61.67,124.17 62.5,125C97.5,125 125,96.67 125,62.5C125,28.33 96.67,0 62.5,0C28.33,0 0,28.33 0,62.5Z " /><g id="路径 2" filter="url(#filter_4)"><path id="路径 2" fill-rule="evenodd" fill="url(#linear_0)" transform="translate(1 3)  rotate(0 98.5 97)" opacity="1" d="M197,97C197,43.36 152.96,0 98.5,0C44.04,0 0,43.36 0,97C0,122.75 10.29,135.68 23.46,143.35C41.21,153.7 64.18,154.5 74.16,164.33C92.71,182.59 82.28,194 98.5,194C152.96,194 197,150.64 197,97Z " /></g><path id="路径 3" fill-rule="evenodd" style="fill:#0091FF" transform="translate(89 111)  rotate(0 22.16666669921876 21.5)" opacity="1" d="M44.33,20.89C44.33,9.83 34.48,0 22.17,0C9.85,0 0,8.6 0,20.89C0,33.17 9.85,43 22.17,43C34.48,43 44.33,31.94 44.33,20.89Z " /><path id="路径 4" fill-rule="evenodd" style="fill:#C4C4C4" transform="translate(111.66666660156244 133.3333333984375)  rotate(0 6.66666669921877 6.250000000000012)" opacity="0" d="M13.33,5.83C13.33,1.67 10.83,0 6.67,0C2.5,0 0,2.5 0,5.83C0,9.17 3.33,12.5 6.67,12.5C10,12.5 13.33,10 13.33,5.83Z " /><path id="路径 5" fill-rule="evenodd" style="fill:#F7D705" transform="translate(105 33)  rotate(0 14.000000000000002 14)" opacity="1" d="M28,14C28,5.6 22.4,0 14,0C5.6,0 0,5.6 0,14C0,22.4 5.6,28 14,28C22.4,28 28,22.4 28,14Z " /><path id="路径 6" fill-rule="evenodd" style="fill:#F27500" transform="translate(61 37)  rotate(0 13.999999999999996 14)" opacity="1" d="M28,14C28,5.6 22.4,0 14,0C5.6,0 0,5.6 0,14C0,22.4 5.6,28 14,28C22.4,28 28,22.4 28,14Z " /><path id="路径 7" fill-rule="evenodd" style="fill:#00B53C" transform="translate(142 61)  rotate(0 14.000000000000009 13.999999999999998)" opacity="1" d="M28,14C28,5.6 22.4,0 14,0C5.6,0 0,5.6 0,14C0,22.4 5.6,28 14,28C22.4,28 28,22.4 28,14Z " /><path id="路径 8" fill-rule="evenodd" style="fill:#FF0000" transform="translate(33 65)  rotate(0 14 13.999999999999993)" opacity="1" d="M28,14C28,5.6 22.4,0 14,0C5.6,0 0,5.6 0,14C0,22.4 5.6,28 14,28C22.4,28 28,22.4 28,14Z " /></g></g></svg>