<?xml version="1.0" standalone="no"?><!DOCTYPE svg PUBLIC "-//W3C//DTD SVG 1.1//EN" "http://www.w3.org/Graphics/SVG/1.1/DTD/svg11.dtd"><svg t="1646115830703" class="icon" viewBox="0 0 1024 1024" version="1.1" xmlns="http://www.w3.org/2000/svg" p-id="3322" xmlns:xlink="http://www.w3.org/1999/xlink" width="200" height="200"><defs><style type="text/css"></style></defs><path d="M903.68 173.568h-778.24c9.216 0 16.384-7.168 16.384-16.384v713.728c0-9.216-7.168-16.384-16.384-16.384h778.24c-9.216 0-16.384 7.168-16.384 16.384V157.696c0 8.192 6.656 15.872 16.384 15.872z m32.768 684.544c0 26.112-20.992 47.104-47.104 47.104H139.264c-26.112 0-47.104-20.992-47.104-47.104V169.984c0-26.112 20.992-47.104 47.104-47.104h750.08c26.112 0 47.104 20.992 47.104 47.104v688.128z" p-id="3323"></path><path d="M381.952 552.96v-45.056l83.968 56.32-83.968 56.32V552.96zM241.664 452.096V583.68h140.288v-37.888H279.04V452.096h-37.376z m534.528-55.808H452.608v56.32h323.584v-56.32z m0 144.896H527.36v56.32h248.832v-56.32z m0-289.28H265.216v56.32h510.976v-56.32z m0 434.176H265.216v56.32h510.976v-56.32z" p-id="3324"></path></svg>