<svg xmlns="http://www.w3.org/2000/svg" xmlns:xlink="http://www.w3.org/1999/xlink" width="200" height="200" viewBox="0 0 200 200" fill="none"><rect x="0" y="0" width="0" height="0" fill="rgba(249, 249, 249, 1)" /><defs><rect id="path_0" x="0" y="0" width="200" height="200" /><rect id="path_1" x="0" y="0" width="90" height="195" /><rect id="path_2" x="0" y="0" width="100" height="200" /></defs><g opacity="1" transform="translate(0 0)  rotate(0 100 100)"><rect fill="#FFFFFF" opacity="1" transform="translate(0 0)  rotate(0 100 100)" x="0" y="0" width="200" height="200" rx="0" /><mask id="bg-mask" fill="white"><use xlink:href="#path_0"></use></mask><g mask="url(#bg-mask)" ><g opacity="1" transform="translate(10 0)  rotate(0 45 97.5)"><mask id="bg-mask" fill="white"><use xlink:href="#path_1"></use></mask><g mask="url(#bg-mask)" ><path id="分组 1" fill-rule="evenodd" style="fill:#000000" transform="translate(10.616484374999997 32.246601562500004)  rotate(0 32.1553125 68.75197265625)" opacity="1" d="M15.6619 129.561L15.6619 129.521L31.5419 129.521L31.5419 135.911L31.6419 135.911L31.6419 117.811L31.5419 117.811L31.5419 124.201L15.6619 124.201L15.6619 93.571L31.5419 93.571L31.5419 99.961L31.6419 99.961L31.6419 81.861L31.5419 81.861L31.5419 88.251L15.6619 88.251L15.6619 58.251L31.5319 58.251L31.5319 52.931L15.6619 52.931L15.6619 29.541L13.2019 29.541L13.2019 129.561L15.6619 129.561Z M30.8907 50.4318L30.8707 50.4318L30.8707 57.1118L30.8907 57.1118L30.8907 65.1418L64.3107 65.1418L64.3107 42.4018L30.8907 42.4018L30.8907 50.4318Z M61.8473 49.5148L33.3573 49.5148L33.3573 52.5248L33.3373 52.5248L33.3373 55.0248L33.3573 55.0248L33.3573 58.0248L61.8473 58.0248L61.8473 49.5148Z M30.8907 87.5032L30.8707 87.5032L30.8707 94.1832L30.8907 94.1832L30.8907 102.213L64.3107 102.213L64.3107 79.4732L30.8907 79.4732L30.8907 87.5032Z M61.8473 86.583L33.3573 86.583L33.3573 89.593L33.3373 89.593L33.3373 92.093L33.3573 92.093L33.3573 95.093L61.8473 95.093L61.8473 86.583Z M30.8907 122.797L30.8707 122.797L30.8707 129.477L30.8907 129.477L30.8907 137.507L64.3107 137.507L64.3107 114.767L30.8907 114.767L30.8907 122.797Z M61.8473 121.877L33.3573 121.877L33.3573 124.887L33.3373 124.887L33.3373 127.387L33.3573 127.387L33.3573 130.387L61.8473 130.387L61.8473 121.877Z M0 30.88L31.64 30.88L31.64 0L0 0L0 30.88Z M27.7862 5.09133L3.70617 5.09133L3.70617 25.2613L27.7862 25.2613L27.7862 5.09133Z " /></g></g><g opacity="1" transform="translate(90 -5)  rotate(0 50 100)"><mask id="bg-mask" fill="white"><use xlink:href="#path_2"></use></mask><g mask="url(#bg-mask)" ><path id="分组 1" fill-rule="evenodd" style="fill:#000000" transform="translate(6.188867187499997 33.921874999999986)  rotate(0 43.8111328125 74.14199218750002)" opacity="1" d="M4.56 0C2.05 0 -1.77636e-15 4.1 -1.77636e-15 9.12L-1.77636e-15 139.18C-1.77636e-15 144.18 2.05 148.28 4.55 148.28L83.06 148.28C85.57 148.28 87.62 144.18 87.62 139.17L87.62 9.11C87.62 4.1 85.57 0 83.07 0L4.56 0Z M4.05139 145.272L24.9114 145.272C26.0814 145.272 26.9914 143.452 26.9914 141.102L26.9914 141.102L26.9914 116.082C26.9914 113.732 26.0814 111.912 24.9114 111.912L4.05139 111.912C2.88139 111.912 1.97139 113.732 1.97139 116.082L1.97139 141.102C1.97139 143.452 2.88139 145.272 4.05139 145.272Z M4.05139 101.328L24.9114 101.328C26.0814 101.328 26.9914 99.5078 26.9914 97.1578L26.9914 97.1578L26.9914 72.1378C26.9914 69.7878 26.0814 67.9678 24.9114 67.9678L4.05139 67.9678C2.88139 67.9678 1.97139 69.7878 1.97139 72.1378L1.97139 97.1578C1.97139 99.5078 2.88139 101.328 4.05139 101.328Z M1.97139 28.4987L1.97139 53.5187C1.97139 55.8687 2.88139 57.6887 4.05139 57.6887L24.9114 57.6887C26.0814 57.6887 26.9914 55.8687 26.9914 53.5187L26.9914 53.5187L26.9914 28.4987C26.9914 26.1487 26.0814 24.3287 24.9114 24.3287L4.05139 24.3287C2.88139 24.3287 1.97139 26.1487 1.97139 28.4987Z M54.1566 145.272C55.3266 145.272 56.2366 143.452 56.2366 141.102L56.2366 141.102L56.2366 116.082C56.2366 113.732 55.3266 111.912 54.1566 111.912L33.2966 111.912C32.1266 111.912 31.2166 113.732 31.2166 116.082L31.2166 141.102C31.2166 143.452 32.1266 145.272 33.2966 145.272L54.1566 145.272Z M54.1566 101.328C55.3266 101.328 56.2366 99.5078 56.2366 97.1578L56.2366 97.1578L56.2366 72.1378C56.2366 69.7878 55.3266 67.9678 54.1566 67.9678L33.2966 67.9678C32.1266 67.9678 31.2166 69.7878 31.2166 72.1378L31.2166 97.1578C31.2166 99.5078 32.1266 101.328 33.2966 101.328L54.1566 101.328Z M56.2366 53.5187L56.2366 53.5187L56.2366 28.4987C56.2366 26.1487 55.3266 24.3287 54.1566 24.3287L33.2966 24.3287C32.1266 24.3287 31.2166 26.1487 31.2166 28.4987L31.2166 53.5187C31.2166 55.8687 32.1266 57.6887 33.2966 57.6887L54.1566 57.6887C55.3266 57.6887 56.2366 55.8687 56.2366 53.5187Z M85.7871 141.102L85.7871 141.102L85.7871 116.082C85.7871 113.732 84.8771 111.912 83.7071 111.912L62.8471 111.912C61.6771 111.912 60.7671 113.732 60.7671 116.082L60.7671 141.102C60.7671 143.452 61.6771 145.272 62.8471 145.272L83.7071 145.272C84.8771 145.272 85.7871 143.452 85.7871 141.102Z M62.8471 101.328L83.7071 101.328C84.8771 101.328 85.7871 99.5078 85.7871 97.1578L85.7871 97.1578L85.7871 72.1378C85.7871 69.7878 84.8771 67.9678 83.7071 67.9678L62.8471 67.9678C61.6771 67.9678 60.7671 69.7878 60.7671 72.1378L60.7671 97.1578C60.7671 99.5078 61.6771 101.328 62.8471 101.328Z M85.7871 53.5187L85.7871 53.5187L85.7871 28.4987C85.7871 26.1487 84.8771 24.3287 83.7071 24.3287L62.8471 24.3287C61.6771 24.3287 60.7671 26.1487 60.7671 28.4987L60.7671 53.5187C60.7671 55.8687 61.6771 57.6887 62.8471 57.6887L83.7071 57.6887C84.8771 57.6887 85.7871 55.8687 85.7871 53.5187Z " /></g></g></g></g></svg>