<svg xmlns="http://www.w3.org/2000/svg" xmlns:xlink="http://www.w3.org/1999/xlink" width="200" height="200" viewBox="0 0 200 200" fill="none"><rect x="0" y="0" width="0" height="0" fill="rgba(249, 249, 249, 1)" /><defs><rect id="path_0" x="0" y="0" width="200" height="200" /><rect id="path_1" x="0" y="0" width="90" height="195" /><rect id="path_2" x="0" y="0" width="90" height="170" /></defs><g opacity="1" transform="translate(0 0)  rotate(0 100 100)"><rect fill="#FFFFFF" opacity="1" transform="translate(0 0)  rotate(0 100 100)" x="0" y="0" width="200" height="200" rx="0" /><mask id="bg-mask" fill="white"><use xlink:href="#path_0"></use></mask><g mask="url(#bg-mask)" ><g opacity="1" transform="translate(17 0)  rotate(0 45 97.5)"><mask id="bg-mask" fill="white"><use xlink:href="#path_1"></use></mask><g mask="url(#bg-mask)" ><path id="分组 1" fill-rule="evenodd" style="fill:#000000" transform="translate(10.616484374999997 32.246601562500004)  rotate(0 32.1553125 68.75197265625)" opacity="1" d="M31.5419 135.911L31.6419 135.911L31.6419 117.811L31.5419 117.811L31.5419 124.201L15.6619 124.201L15.6619 93.571L31.5419 93.571L31.5419 99.961L31.6419 99.961L31.6419 81.861L31.5419 81.861L31.5419 88.251L15.6619 88.251L15.6619 58.251L31.5319 58.251L31.5319 52.931L15.6619 52.931L15.6619 29.541L13.2019 29.541L13.2019 129.561L15.6619 129.561L15.6619 129.521L31.5419 129.521L31.5419 135.911Z M30.8907 50.4318L30.8707 50.4318L30.8707 57.1118L30.8907 57.1118L30.8907 65.1418L64.3107 65.1418L64.3107 42.4018L30.8907 42.4018L30.8907 50.4318Z M61.8473 49.5148L33.3573 49.5148L33.3573 52.5248L33.3373 52.5248L33.3373 55.0248L33.3573 55.0248L33.3573 58.0248L61.8473 58.0248L61.8473 49.5148Z M30.8907 87.5032L30.8707 87.5032L30.8707 94.1832L30.8907 94.1832L30.8907 102.213L64.3107 102.213L64.3107 79.4732L30.8907 79.4732L30.8907 87.5032Z M61.8473 86.583L33.3573 86.583L33.3573 89.593L33.3373 89.593L33.3373 92.093L33.3573 92.093L33.3573 95.093L61.8473 95.093L61.8473 86.583Z M30.8907 122.797L30.8707 122.797L30.8707 129.477L30.8907 129.477L30.8907 137.507L64.3107 137.507L64.3107 114.767L30.8907 114.767L30.8907 122.797Z M61.8473 121.877L33.3573 121.877L33.3573 124.887L33.3373 124.887L33.3373 127.387L33.3573 127.387L33.3573 130.387L61.8473 130.387L61.8473 121.877Z M0 30.88L31.64 30.88L31.64 0L0 0L0 30.88Z M27.7862 5.09133L3.70617 5.09133L3.70617 25.2613L27.7862 25.2613L27.7862 5.09133Z " /></g></g><g opacity="1" transform="translate(98 22)  rotate(0 45 85)"><mask id="bg-mask" fill="white"><use xlink:href="#path_2"></use></mask><g mask="url(#bg-mask)" ><path id="分组 1" fill-rule="evenodd" style="fill:#000000" transform="translate(5.625 10.625)  rotate(0 36.5625 69.0625)" opacity="1" d="M42.185 74.38C43.765 74.38 45.005 72.04 45.005 69.06C45.005 66.09 43.765 63.75 42.185 63.75L19.685 63.75C18.115 63.75 16.875 66.09 16.875 69.06C16.875 72.04 18.115 74.38 19.685 74.38L42.185 74.38Z M11.25 0C5.06 0 0 9.56 0 21.25L0 116.88C0 128.56 5.06 138.13 11.25 138.13L61.88 138.13C68.06 138.13 73.13 128.56 73.13 116.88L73.13 21.25C73.13 9.56 68.06 0 61.88 0L11.25 0Z M67.505 21.255C67.505 15.405 64.965 10.625 61.875 10.625L11.255 10.625C8.155 10.625 5.625 15.405 5.625 21.255L5.625 116.875C5.625 122.715 8.155 127.505 11.255 127.505L61.875 127.505C64.965 127.505 67.505 122.715 67.505 116.875L67.505 21.255Z M19.685 31.875C18.115 31.875 16.875 34.215 16.875 37.185C16.875 40.165 18.115 42.505 19.685 42.505L53.435 42.505C55.015 42.505 56.255 40.165 56.255 37.185C56.255 34.215 55.015 31.875 53.435 31.875L19.685 31.875Z M19.685 95.625C18.115 95.625 16.875 97.965 16.875 100.935C16.875 103.915 18.115 106.255 19.685 106.255L47.815 106.255C49.385 106.255 50.625 103.915 50.625 100.935C50.625 97.965 49.385 95.625 47.815 95.625L19.685 95.625Z " /></g></g></g></g></svg>