<?xml version="1.0" standalone="no"?><!DOCTYPE svg PUBLIC "-//W3C//DTD SVG 1.1//EN" "http://www.w3.org/Graphics/SVG/1.1/DTD/svg11.dtd"><svg t="1689668601875" class="icon" viewBox="0 0 1024 1024" version="1.1" xmlns="http://www.w3.org/2000/svg" p-id="7969" xmlns:xlink="http://www.w3.org/1999/xlink" width="200" height="200"><path d="M293.79 244c-27.61 0-50 22.39-50 50v585h585c27.61 0 50-22.39 50-50V244h-585z" fill="#E9F1FF" p-id="7970"></path><path d="M410.21 403.07H375.8c-2.57 0-4.85 1.63-5.68 4.06l-35.13 102.93c-3.79 10.56-7.12 20.09-10.04 29.16-2.66-8.83-5.82-18.3-9.69-29.09l-35.54-103.02a5.99 5.99 0 0 0-5.67-4.04h-35.16c-1.97 0-3.81 0.97-4.93 2.58a6.016 6.016 0 0 0-0.69 5.53l68.83 183.31a6.005 6.005 0 0 0 5.62 3.89h31.42c2.48 0 4.7-1.52 5.59-3.83l71.07-183.31a6.01 6.01 0 0 0-0.64-5.56 5.97 5.97 0 0 0-4.95-2.61zM572.94 548.44v-68.55c0-22.85-4.98-41.29-14.8-54.8-12.63-17.38-32.83-26.19-60.03-26.19-23.21 0-46.09 6.3-62.78 17.27a6.008 6.008 0 0 0-2.38 6.95l7.48 21.97c0.6 1.76 1.97 3.14 3.73 3.74 1.75 0.6 3.69 0.36 5.24-0.66 12.09-7.92 28.48-12.65 43.84-12.65 22.94 0 34.44 11.21 35.12 34.23-41.87 0.61-72.31 10.1-90.54 28.23-12.13 12.06-18.28 27.51-18.28 45.92 0 15.36 5.53 29.7 15.56 40.37 11.24 11.95 27.08 18.27 45.8 18.27 20.01 0 38.63-7.35 51.94-20.12l1.2 10.63a5.996 5.996 0 0 0 5.96 5.32h29.93a6 6 0 0 0 4.6-2.15 5.974 5.974 0 0 0 1.3-4.91c-1.94-10.85-2.89-24.88-2.89-42.87z m-43.79-43.67v25.87c0 2.55-0.56 5.65-1.56 8.69-4.14 12.27-16.59 26.6-38.08 26.6-15.68 0-25.05-9.65-25.05-25.81 0-8.52 2.64-15.25 8.07-20.56 9.95-9.76 28.98-14.72 56.62-14.79zM710.93 400.22c-3.7-0.94-6.84-1.32-10.83-1.32-18.39 0-35.14 9.46-46.27 25.22l-0.48-15.24a6 6 0 0 0-6-5.81h-28.8a6 6 0 0 0-4.38 1.9 6.01 6.01 0 0 0-1.61 4.49c1.03 15.58 1.48 33.1 1.48 56.8v126.12c0 3.31 2.69 6 6 6h32.54c3.31 0 6-2.69 6-6v-97.71c0-5.24 0.72-10.3 1.4-14.47 4.19-23.35 18.84-37.86 38.23-37.86 3.86 0 6.82 0.3 9.91 0.99 1.78 0.4 3.64-0.03 5.06-1.17a6.004 6.004 0 0 0 2.25-4.68v-31.43a5.946 5.946 0 0 0-4.5-5.83z" fill="#2C5CCB" p-id="7971"></path><path d="M828.79 904h-635c-41.36 0-75-33.65-75-75V194c0-41.35 33.64-75 75-75h635c41.35 0 75 33.65 75 75v635c0 41.36-33.64 75-75 75z m-635-735c-13.79 0-25 11.21-25 25v635c0 13.79 11.21 25 25 25h635c13.79 0 25-11.21 25-25V194c0-13.79-11.21-25-25-25h-635z" fill="#2C5CCB" p-id="7972"></path><path d="M704.99 753.45H317.6c-13.81 0-25-11.19-25-25s11.19-25 25-25h387.39c13.81 0 25 11.19 25 25s-11.2 25-25 25z" fill="#2C5CCB" p-id="7973"></path></svg>