<?xml version="1.0" standalone="no"?><!DOCTYPE svg PUBLIC "-//W3C//DTD SVG 1.1//EN" "http://www.w3.org/Graphics/SVG/1.1/DTD/svg11.dtd"><svg t="1646014188144" class="icon" viewBox="0 0 1024 1024" version="1.1" xmlns="http://www.w3.org/2000/svg" p-id="7092" xmlns:xlink="http://www.w3.org/1999/xlink" width="200" height="200"><defs><style type="text/css"></style></defs><path d="M509.452736 0c208.213333 0 376.995025 168.781692 376.995025 376.995025v295.482587c0 151.93409-123.170388 275.104478-275.104477 275.104478H407.562189c-151.93409 0-275.104478-123.170388-275.104478-275.104478V376.995025C132.457711 168.781692 301.239403 0 509.452736 0z" fill="#EC842C" p-id="7093"></path><path d="M213.970149 361.711443c106.918846 0 193.59204 86.673194 193.59204 193.59204s-86.673194 193.59204-193.59204 193.592039-193.59204-86.673194-193.59204-193.592039 86.673194-193.59204 193.59204-193.59204z m596.059702 0c106.918846 0 193.59204 86.673194 193.59204 193.59204s-86.673194 193.59204-193.59204 193.592039-193.59204-86.673194-193.59204-193.592039 86.673194-193.59204 193.59204-193.59204z" fill="#EC842C" p-id="7094"></path><path d="M417.751244 815.124378h183.402985v117.174129c0 50.644697-41.056796 91.701493-91.701493 91.701493s-91.701493-41.056796-91.701492-91.701493v-117.174129z" fill="#E6C9AE" p-id="7095"></path><path d="M157.930348 636.81592c0 42.203065 34.214846 76.41791 76.417911 76.417911 42.203065 0 76.41791-34.214846 76.41791-76.417911 0-42.203065-34.214846-76.41791-76.41791-76.41791-42.203065 0-76.41791 34.214846-76.417911 76.41791z" fill="#F2DCC9" p-id="7096"></path><path d="M198.686567 636.821015a35.661692 35.661692 0 1 0 71.323383 0.010189 35.661692 35.661692 0 0 0-71.323383-0.010189z" fill="#E89E80" p-id="7097"></path><path d="M708.139303 636.81592c0 42.203065 34.214846 76.41791 76.417911 76.417911 42.203065 0 76.41791-34.214846 76.41791-76.417911 0-42.203065-34.214846-76.41791-76.41791-76.41791-42.203065 0-76.41791 34.214846-76.417911 76.41791z" fill="#F2DCC9" p-id="7098"></path><path d="M748.895522 636.821015a35.661692 35.661692 0 1 0 71.323383 0.010189 35.661692 35.661692 0 0 0-71.323383-0.010189z" fill="#E89E80" p-id="7099"></path><path d="M504.358209 234.348259h10.189055c146.309731 0 264.915423 118.605692 264.915423 264.915423v178.308457c0 149.12191-120.88804 270.00995-270.009951 270.009951h-5.094527c-146.309731 0-264.915423-118.605692-264.915423-264.915423V499.263682c0-146.309731 118.605692-264.915423 264.915423-264.915423z" fill="#F2DCC9" p-id="7100"></path><path d="M433.034826 775.641791c0-19.695443 37.485532-11.462687 58.587065-11.462687s17.830846 15.966249 17.830845 35.661692l-76.41791-24.199005z" fill="#EE4142" p-id="7101"></path><path d="M509.452736 799.840796c0-19.695443-3.270687-35.661692 17.830846-35.661692s58.587065-8.232756 58.587065 11.462687L509.452736 799.840796z" fill="#EE4142" p-id="7102"></path><path d="M430.487562 774.368159c0 20.785672 38.168199 71.323383 78.965174 71.323383s78.965174-50.537711 78.965174-71.323383c-33.369154 22.456677-58.770468 33.685015-76.224318 33.685015-17.448756 0-44.6841-11.228338-81.70603-33.685015z" fill="#EE4142" p-id="7103"></path><path d="M304.39801 667.383085a11.462687 11.462687 0 0 1 11.462687 11.462686v38.208955a11.462687 11.462687 0 0 1-11.462687 11.462687h-7.641791a11.462687 11.462687 0 0 1-11.462687-11.462687v-38.208955a11.462687 11.462687 0 0 1 11.462687-11.462686h7.641791z m45.850746 0a11.462687 11.462687 0 0 1 11.462687 11.462686v38.208955a11.462687 11.462687 0 0 1-11.462687 11.462687h-7.641791a11.462687 11.462687 0 0 1-11.462686-11.462687v-38.208955a11.462687 11.462687 0 0 1 11.462686-11.462686h7.641791zM681.393035 667.383085a11.462687 11.462687 0 0 1 11.462686 11.462686v38.208955a11.462687 11.462687 0 0 1-11.462686 11.462687h-7.641791a11.462687 11.462687 0 0 1-11.462687-11.462687v-38.208955a11.462687 11.462687 0 0 1 11.462687-11.462686h7.641791z m45.850746 0a11.462687 11.462687 0 0 1 11.462687 11.462686v38.208955a11.462687 11.462687 0 0 1-11.462687 11.462687h-7.641791a11.462687 11.462687 0 0 1-11.462687-11.462687v-38.208955a11.462687 11.462687 0 0 1 11.462687-11.462686h7.641791z" fill="#F5B196" p-id="7104"></path><path d="M643.606925 531.196179c25.319801 0 45.850746 19.155423 45.850747 42.79403v36.680597c0 23.638607-20.530945 42.79403-45.850747 42.79403s-45.850746-19.155423-45.850746-42.79403v-36.680597c0-23.638607 20.530945-42.79403 45.850746-42.79403zM378.691502 531.196179c25.319801 0 45.850746 19.155423 45.850747 42.79403v36.680597c0 23.638607-20.530945 42.79403-45.850747 42.79403s-45.850746-19.155423-45.850746-42.79403v-36.680597c0-23.638607 20.530945-42.79403 45.850746-42.79403z" fill="#514141" p-id="7105"></path><path d="M378.691502 566.857871m-20.378109 0a20.378109 20.378109 0 1 0 40.756219 0 20.378109 20.378109 0 1 0-40.756219 0Z" fill="#FFFFFF" p-id="7106"></path><path d="M633.417871 566.857871m-20.37811 0a20.378109 20.378109 0 1 0 40.756219 0 20.378109 20.378109 0 1 0-40.756219 0Z" fill="#FFFFFF" p-id="7107"></path><path d="M422.759164 539.082507l0.69795-0.290388c0.580776-0.198687 1.151363-0.433035 1.706667-0.703044 6.622886-3.219741 8.584279-10.520199 4.36601-16.307582-4.106189-5.634547-12.547821-7.753871-19.104478-4.890747l-0.52983 0.244538-0.035662-0.050946c-25.910766 11.131542-59.025194 2.939542-75.56203-18.961831l-0.54002-0.723422c-4.218269-5.787383-13.006328-7.86595-19.634308-4.646209-6.454766 3.138229-8.482388 10.143204-4.686965 15.854169l0.31586 0.458507c24.046169 33.002348 72.902687 45.901692 111.824876 30.490747l1.18193-0.473792zM722.699463 505.58599l0.417751-0.631721c0.3719-0.489075 0.713234-0.998527 1.018905-1.533453 3.698627-6.378348 1.232876-13.52597-5.496995-15.966249-6.551562-2.37405-14.738468 0.590965-18.574646 6.633075l-0.300578 0.499263-0.056039-0.025472c-15.258109 23.720119-47.292498 35.442627-73.249115 26.537393l-0.85588-0.305672c-6.729871-2.435184-15.181692 0.75399-18.875224 7.132339-3.596736 6.215323-1.355144 13.148975 4.977353 15.762467l0.524736 0.203781c38.387264 13.913154 86.102607-2.705194 109.761592-37.256278l0.70814-1.049473z" fill="#4D4132" p-id="7108"></path><path d="M426.101174 533.014925l0.657194 0.448319c0.560398 0.331144 1.095323 0.69795 1.604776 1.090229 6.103244 4.732816 6.245891 12.293095 0.315861 16.883263-5.7721 4.472995-15.176597 4.488279-21.300219 0.122269l-0.489075-0.366806-0.050945 0.045851c-24.239761-17.071761-61.083383-17.132896-84.141214 0.117174l-0.75399 0.570587c-5.93003 4.595264-15.68605 4.483184-21.789293-0.244537-5.945313-4.605453-6.235701-11.890627-0.769274-16.511364l0.458507-0.3719c33.817473-26.201154 88.379861-26.899104 125.147065-2.53198l1.110607 0.748895zM716.489234 533.014925l0.657194 0.448319c0.560398 0.331144 1.095323 0.69795 1.604776 1.090229 6.103244 4.732816 6.245891 12.293095 0.315861 16.883263-5.7721 4.472995-15.176597 4.488279-21.300219 0.122269l-0.489075-0.366806-0.050945 0.045851c-24.239761-17.071761-61.083383-17.132896-84.141214 0.117174l-0.75399 0.570587c-5.93003 4.595264-15.68605 4.483184-21.789294-0.244537-5.945313-4.605453-6.235701-11.890627-0.769273-16.511364l0.458507-0.3719c33.817473-26.201154 88.379861-26.899104 125.147065-2.53198l1.110607 0.748895zM433.36597 453.402746l0.555304 0.585871c0.489075 0.448318 0.947582 0.922109 1.370427 1.416279 5.058866 5.87399 3.270687 12.242149-3.994109 14.22392-7.076299 1.930826-16.735522-1.008716-21.906468-6.587224l-0.407562-0.458507-0.066229 0.020378c-20.530945-21.896279-58.362905-33.52199-86.454129-26.328518l-0.922109 0.244538c-7.264796 1.986866-17.260259-1.171741-22.31403-7.045732-4.931502-5.721154-3.362388-11.911005 3.428617-14.060895l0.560398-0.163025c41.44398-11.309851 97.667184 5.237174 129.197214 37.179861l0.952676 0.973054zM711.394706 440.829453l0.657194 0.570587c0.560398 0.407562 1.095323 0.86607 1.604777 1.360239 6.103244 5.909652 6.245891 15.36 0.31586 21.106626-5.7721 5.588697-15.176597 5.60398-21.300219 0.147742l-0.489074-0.458508-0.050945 0.05604c-24.239761-21.335881-61.083383-21.412299-84.141214 0.147741l-0.75399 0.713234c-5.93003 5.746627-15.68605 5.609075-21.789294-0.305671-5.945313-5.756816-6.235701-14.860736-0.769274-20.637931l0.458508-0.458507c33.817473-32.757811 88.379861-33.63407 125.147065-3.168796l1.110606 0.932298z" fill="#4D4132" p-id="7109"></path><path d="M626.626866 494.169154h203.781094a10.189055 10.189055 0 0 0 10.189055-10.189054V300.577114c0-106.918846-86.673194-193.59204-193.59204-193.592039H443.223881a10.189055 10.189055 0 0 0-10.189055 10.189054v183.402985c0 106.918846 86.673194 193.59204 193.59204 193.59204z" fill="#EC842C" p-id="7110"></path><path d="M235.382448 423.227861a172.577114 172.577114 0 0 1-23.872955-122.161672c16.608159-94.208 106.450149-157.115224 200.658149-140.507065A172.419184 172.419184 0 0 1 504.286886 208.366169c-45.545075 112.777552-146.921075 193.189572-265.287324 214.250348z" fill="#EC842C" p-id="7111"></path><path d="M203.781095 748.895522m-50.945274 0a50.945274 50.945274 0 1 0 101.890547 0 50.945274 50.945274 0 1 0-101.890547 0Z" fill="#FFFFFF" p-id="7112"></path><path d="M815.124378 748.895522m-50.945274 0a50.945274 50.945274 0 1 0 101.890548 0 50.945274 50.945274 0 1 0-101.890548 0Z" fill="#FFFFFF" p-id="7113"></path><path d="M573.735483 63.27403c100.377473 16.164935 181.609711 80.152199 224.790925 165.495721l-0.137552 0.096796c3.392955 4.992637 4.972259 11.274189 3.968637 17.744239-2.083662 13.357851-14.417512 22.47196-27.561393 20.357731-10.087164-1.625154-17.708577-9.394308-19.766767-18.96183-36.441154-71.730945-104.279881-125.788975-188.181651-140.72613l-4.289592-0.723423-25.956617-4.177512 0.066228-0.443224c-9.547144-3.632398-15.594348-13.699184-13.938626-24.336557 1.655721-10.637373 10.469254-18.314826 20.658308-18.763144l0.071323-0.43813 30.276777 4.875463z" fill="#FAAE19" p-id="7114"></path><path d="M802.65807 313.124935m-25.472637 0a25.472637 25.472637 0 1 0 50.945273 0 25.472637 25.472637 0 1 0-50.945273 0Z" fill="#FAAE19" p-id="7115"></path></svg>