<?xml version="1.0" standalone="no"?><!DOCTYPE svg PUBLIC "-//W3C//DTD SVG 1.1//EN" "http://www.w3.org/Graphics/SVG/1.1/DTD/svg11.dtd"><svg t="1646014476480" class="icon" viewBox="0 0 1024 1024" version="1.1" xmlns="http://www.w3.org/2000/svg" p-id="11026" xmlns:xlink="http://www.w3.org/1999/xlink" width="200" height="200"><defs><style type="text/css"></style></defs><path d="M356.37923925 878.33707037c1.51892491 6.76612003 3.31401797 13.39415599 5.52336328 19.3317715 3.45210207 9.52780169 3.0378498 19.88410785-0.55233632 29.27382545-2.62359757 6.90420412-4.00443838 17.67476253-0.69042042 34.3829365 7.04228819 35.62569324 97.76353027-7.31845635 81.33152448-36.45419774-4.83294288-8.5612131-5.5233633-18.91751926-3.03784981-28.30723686 3.45210207-13.11798782 4.28060655-31.62125485-7.87079269-50.40069004-19.74602377-2.76168163-39.0777953-6.48995186-57.85723049-11.04672659-12.84181965 9.11354943-20.98878051 25.13130297-16.84625803 43.22031778zM564.74811943 862.73356905c-0.27616816 1.38084082-0.55233633 2.76168163-0.69042041 4.14252248-1.51892491 15.18924905-9.80396985 111.43385442 34.79718875 104.39156622 34.24485242-5.3852792 35.21144098-19.46985561 32.86401159-27.20256422-1.38084082-4.41869063-2.20934532-8.97546534-2.07126123-13.67032414 0.55233633-17.53667845 0.13808409-58.5476509-13.80840823-86.57871961-15.6035013 2.89976573-31.62125485 5.10911105-47.91517657 6.48995185-1.51892491 5.24719513-2.62359757 9.80396985-3.1759339 12.42756742z" fill="#72674E" p-id="11027"></path><path d="M503.71495506 447.2385654zM657.81679091 430.1161392c-0.13808409 0-0.27616816 0.13808409-0.55233633 0.13808406l0.55233633-0.13808406z" fill="#C7B299" p-id="11028"></path><path d="M864.11440987 382.61521488c5.5233633-35.07335691 11.59906291-47.63900839 17.53667846-44.18690635-5.5233633-99.69670741-34.24485242-186.27542702-98.4539507-222.86770883-4.69485881-2.62359757-9.52780169-5.24719513-14.49882863-7.73270861 4.97102697 11.32289475 7.7327086 23.75046215 7.73270862 36.73036589 0 50.67685821-41.42522469 92.1020829-92.1020829 92.1020829s-92.1020829-41.42522469-92.1020829-92.1020829c0-34.24485242 18.91751926-64.20909827 46.81050389-79.95068365-153.68758361-30.5165822-337.75366532-5.93761554-402.79126806 107.84366829-28.99765728 50.67685821-53.71470801 125.24226266-68.35162075 205.74528263 22.50770542-17.81284661 61.17124846-7.87079269 66.97077992 26.09789156 9.25163351 54.26704435 15.32733314 115.57637689 8.97546534 167.6340759-15.32733314 125.79459897-53.8527921 66.83269584-41.97756102 131.31796227 1.65700898 8.69929718-1.38084082 17.67476253-7.18037228 25.131303 14.7749968 26.09789155 33.96868425 47.08667206 58.13339865 60.89508029 33.96868425 19.33177153 75.11774077 34.93527282 119.85698344 45.70583124 18.7794352 4.55677472 38.11120672 8.28504494 57.85723048 11.04672658 45.291579 6.48995186 92.1020829 8.14696086 136.97940966 4.14252248 16.29392172-1.38084082 32.31167525-3.59018613 47.91517654-6.48995188 80.22685182-15.05116498 149.26889298-50.40069004 184.2041658-111.43385443 16.98434213-29.82616178 32.58784341-67.9373685 45.56774717-110.74343399-3.1759339-114.33362015 18.91751926-238.88546238 18.91751927-238.88546239zM463.39440302 86.01060608c50.67685821 0 92.1020829 41.42522469 92.1020829 92.1020829s-41.42522469 92.1020829-92.1020829 92.1020829-92.1020829-41.42522469-92.10208288-92.1020829 41.42522469-92.1020829 92.10208288-92.1020829z m328.08777956 290.3908251c-19.33177153 24.44088257-95.83035312 52.61003536-185.86117477 65.45185502-12.15139925 2.07126124-24.71705073 3.59018613-37.83503856 4.69485878-2.07126124 3.31401797-9.66588576 0.69042042-9.66588576 0.69042042-5.66144737 0.41425225-11.46097883 0.55233633-17.2605103 0.6904204-108.53408869 5.10911105-221.6249521-16.43200579-272.57797846-94.44951229-0.13808409-0.13808409-0.27616816-0.27616816-0.27616816-0.55233633-0.13808409-0.27616816-0.41425225-0.55233633-0.69042042-0.96658858-22.78387358-34.52102059 0-46.53433573 17.2605103-50.6768582 8.14696086-1.93317715 16.70817396-1.24275675 24.57896664 1.79509307 6.07569962 2.3474294 14.22266047 5.24719513 24.02663033 8.56121312 8.83738127 2.89976573 17.53667845 5.66144737 25.95980747 8.28504492 50.40069004 15.32733314 124.68992631 33.41634791 196.49364913 36.86844998 34.3829365 1.65700898 68.21353665-0.13808409 98.59203475-7.18037229 27.89298463-6.48995186 52.74811943-17.39859437 72.63222729-34.24485239 101.4918005-86.99297185 102.32030498 24.9932189 64.62335052 61.03316437z" fill="#C7B299" p-id="11029"></path><path d="M463.39440302 270.21477188c50.67685821 0 92.1020829-41.42522469 92.1020829-92.1020829s-41.42522469-92.1020829-92.1020829-92.1020829-92.1020829 41.42522469-92.10208288 92.1020829 41.42522469 92.1020829 92.10208288 92.1020829z m40.32055204-109.2245091c11.59906291 0 20.98878051 9.3897176 20.98878051 20.98878052 0 11.59906291-9.3897176 20.98878051-20.98878051 20.98878051-11.59906291 0-20.98878051-9.3897176-20.98878051-20.98878051-0.13808409-11.59906291 9.3897176-20.98878051 20.98878051-20.98878052zM592.50301999 144.55825698c0 50.67685821 41.42522469 92.1020829 92.10208289 92.1020829s92.1020829-41.42522469 92.1020829-92.1020829c0-13.11798782-2.76168163-25.54555523-7.73270861-36.73036589-14.22266047-32.44975935-46.67241982-55.23363292-84.36937429-55.23363292-16.43200579 0-31.89742302 4.41869063-45.291579 12.01331516-27.89298463 15.87966947-46.8105039 45.70583125-46.81050389 79.95068365z m56.89064191-23.75046215c0 11.59906291-9.3897176 20.98878051-20.98878051 20.98878052-11.59906291 0-20.98878051-9.3897176-20.98878052-20.98878052 0-11.59906291 9.3897176-20.98878051 20.98878052-20.98878052 11.59906291 0 20.98878051 9.3897176 20.98878051 20.98878052z" fill="#F2F2F2" p-id="11030"></path><path d="M503.71495506 181.9790433m-20.98878051 0a20.98878051 20.98878051 0 1 0 41.97756102 0 20.98878051 20.98878051 0 1 0-41.97756102 0Z" fill="#72674E" p-id="11031"></path><path d="M628.40488139 120.80779483m-20.98878052 0a20.98878051 20.98878051 0 1 0 41.97756103 0 20.98878051 20.98878051 0 1 0-41.97756103 0Z" fill="#72674E" p-id="11032"></path><path d="M726.5826639 315.36826681c-11.04672658 83.54086979-65.86610725 39.90629979-71.94180687 34.79718873-0.13808409 0-0.27616816 0.13808409-0.55233634 0.13808408 0 2.62359757-2.89976573 13.39415599-52.3338672 24.71705075-45.15349491 10.35630617-47.77709247-7.18037229-46.94858798-14.9130809-3.72827022 18.64135111-8.69929718 26.78831197-81.19344039 19.4698556-76.77474976-7.7327086-52.19578311-38.80162713-52.1957831-38.80162714-77.46517017 64.7614346-88.37381268-29.13574137-88.37381269-29.13574134-9.80396985-3.31401797-18.08901478-6.2137837-24.02663031-8.56121312-7.87079269-3.0378498-16.43200579-3.72827022-24.57896667-1.79509307-17.12242621 4.14252247-40.04438386 16.15583763-17.26051027 50.6768582 0.13808409-0.55233633 7.31845635-24.9932189 43.77265408 0 21.95536909 15.05116498 22.09345317 28.72148912 18.6413511 37.42078631 8.00887677-8.42312903 24.57896666-17.53667845 54.40512844-2.89976573 27.3406483 13.53224006 32.03550709 26.65022788 31.20700261 35.34952507 5.5233633-8.69929718 18.50326702-18.64135111 48.3294288-10.080138 47.77709247 13.80840823 48.88176514 15.6035013 40.32055203 35.34952507 0-0.13808409 24.71705073-56.06213742 51.78153088-23.88854624 2.76168163 3.31401797 4.97102697 6.07569962 6.76612002 8.5612131 5.3852792-12.15139925 17.53667845-27.06448014 45.15349491-27.06448013 46.53433573 0 42.80606551 27.20256421 46.67241982 26.23597565 1.93317715-0.55233633 2.89976573-0.8285045 3.31401798-0.96658859 0.13808409 0 0.27616816-0.13808409 0.55233633-0.13808409 0 0-13.9464923-29.96424587 26.78831197-35.62569323 24.1647144-3.31401797 34.3829365 1.38084082 38.80162712 5.79953146-4.00443838-9.11354943-7.04228819-26.65022788 21.81728501-34.79718874 40.04438386-11.18481067 43.22031776 0 43.22031776 0s5.3852792 7.87079269 3.17593389 10.90864251c37.28270222-35.76377732 36.45419773-147.74996806-65.31377093-60.75699621z" fill="#72674E" p-id="11033"></path><path d="M555.49648592 356.93157557c-71.80372281-3.45210207-146.09295908-21.54111683-196.49364912-36.86844997 80.91727223 24.85513482 145.40253867 35.48760915 196.21748096 37.83503855 0.13808409-0.69042042 0.27616816-0.96658859 0.27616816-0.96658858zM726.5826639 315.36826681c-19.74602377 16.84625804-44.73924267 27.89298463-72.6322273 34.24485239 0 0 0.27616816 0.13808409 0.55233634 0.55233634 53.02428761-12.42756741 72.07989097-34.79718875 72.07989096-34.79718873zM540.72148912 448.0670699c5.79953147-0.13808409 11.59906291-0.41425225 17.26051029-0.69042042v-0.27616816c-5.66144737 0.27616816-11.46097883 0.69042042-17.26051029 0.96658858z" fill="#72674E" p-id="11034"></path><path d="M654.08852069 350.30353962c0-0.41425225-0.13808409-0.55233633-0.13808409-0.55233632-30.3784981 7.04228819-64.20909827 8.83738127-98.59203475 7.18037227 0 0.27616816-0.13808409 0.69042042-0.13808409 0.96658858 41.42522469 1.79509307 73.87498403-1.79509307 98.86820293-7.59462453zM268.14351066 353.47947351c-0.13808409-0.13808409-0.27616816-0.27616816-0.27616817-0.55233633 0 0.27616816 0.13808409 0.41425225 0.27616817 0.55233633zM567.64788517 446.54814498c13.11798782-1.10467265 25.8217234-2.76168163 37.83503854-4.69485878-12.28948332 1.79509307-24.9932189 3.1759339-37.69695446 4.28060655 0 0.13808409 0 0.27616816-0.13808408 0.41425223z" fill="#72674E" p-id="11035"></path><path d="M788.30624869 365.63087275s-3.1759339-11.18481067-43.22031776 0c-28.85957319 8.14696086-25.68363931 25.54555523-21.81728501 34.79718874-4.28060655-4.41869063-14.49882864-9.11354943-38.80162711-5.79953145-40.59672019 5.66144737-26.78831197 35.62569324-26.78831198 35.62569322l-0.55233632 0.1380841c-0.55233633 0.13808409-1.38084082 0.41425225-3.31401798 0.96658858-3.86635431 1.10467265-0.13808409-26.23597565-46.67241983-26.23597564-27.61681646 0-39.7682157 14.91308089-45.15349491 27.06448013-1.79509307-2.48551348-4.00443838-5.3852792-6.76612003-8.56121311-27.06448014-32.17359118-51.64344678 23.75046215-51.78153086 23.88854625 8.5612131-19.88410785 7.45654045-21.54111683-40.32055204-35.34952507-29.82616178-8.69929718-42.80606551 1.38084082-48.32942879 10.08013801 0.8285045-8.69929718-3.86635431-21.817285-31.2070026-35.34952508-29.82616178-14.7749968-46.39625165-5.66144737-54.40512845 2.89976574 3.45210207-8.5612131 3.31401797-22.36962133-18.64135111-37.42078631-36.31611363-24.9932189-43.63457002-0.69042042-43.77265408 0 0.13808409 0.27616816 0.41425225 0.55233633 0.69042041 0.96658857 0.13808409 0.13808409 0.27616816 0.27616816 0.27616816 0.55233633 50.95302637 78.01750651 164.04388978 99.55862335 272.57797847 94.44951231 5.79953147-0.27616816 11.59906291-0.69042042 17.2605103-1.10467267v0.27616817s7.59462453 2.62359757 9.66588575-0.69042042c0.13808409-0.13808409 0.13808409-0.27616816 0.13808408-0.41425224 12.70373557-1.10467265 25.40747114-2.62359757 37.69695447-4.28060654C695.09949314 429.42571878 771.59807473 401.11848192 790.92984625 376.67759935c2.76168163-3.1759339-2.62359757-11.04672658-2.62359756-11.0467266z" fill="#EAE8E8" p-id="11036"></path><path d="M654.50277294 350.16545554c6.07569962 5.10911105 60.8950803 48.74368105 71.94180688-34.79718873 0.13808409 0-18.91751926 22.36962133-71.94180688 34.79718873z" fill="#F2F4EF" p-id="11037"></path><path d="M654.08852069 350.30353962c0.13808409 0 0.27616816-0.13808409 0.55233634-0.13808408-0.41425225-0.27616816-0.55233633-0.55233633-0.55233634-0.55233634-0.13808409 0.13808409 0 0.27616816 0 0.69042042zM421.41684202 340.77573793s-24.57896666 31.2070026 52.1957831 38.80162714c72.4941432 7.31845635 77.46517017-0.96658859 81.19344039-19.4698556-0.8285045 7.7327086 1.79509307 25.26938706 46.94858798 14.9130809 49.43410147-11.32289475 52.3338672-22.09345317 52.3338672-24.71705075-24.9932189 5.79953147-57.30489415 9.3897176-98.86820293 7.59462453 0-0.27616816 0.13808409-0.69042042 0.13808409-0.96658858 0 0-0.13808409 0.41425225-0.27616816 0.96658858-50.81494228-2.3474294-115.30020874-12.84181965-196.21748095-37.83503855-8.42312903-2.62359757-17.12242621-5.3852792-25.95980749-8.28504495 0.13808409 0 11.04672658 93.75909188 88.51189677 28.99765728z" fill="#F2F4EF" p-id="11038"></path><path d="M202.2774034 703.10836992c-11.87523108-64.48526643 26.65022788-5.5233633 41.97756102-131.31796227 6.35186779-51.91961495 0.27616816-113.36703157-8.97546536-167.63407594-5.79953147-33.96868425-44.46307451-43.77265408-66.97077992-26.09789155-6.07569962 4.69485881-10.90864251 11.46097883-13.67032414 20.29836011-117.09530179 367.57982709 7.7327086 372.82702222 40.73480426 329.88287262 5.5233633-7.31845635 8.5612131-16.29392172 6.90420414-25.13130297zM881.78917242 338.56639263c-5.93761554-3.45210207-12.01331517 9.11354943-17.53667846 44.18690634 0 0-22.09345317 124.55184224-18.50326703 239.02354646 2.07126124 63.65676193 12.01331517 124.27567408 38.2492908 158.52052648 61.86166887 81.19344039 30.65466627-422.81346001-2.20934531-441.73097928z" fill="#72674E" p-id="11039"></path></svg>