<?xml version="1.0" standalone="no"?><!DOCTYPE svg PUBLIC "-//W3C//DTD SVG 1.1//EN" "http://www.w3.org/Graphics/SVG/1.1/DTD/svg11.dtd"><svg t="1646015241484" class="icon" viewBox="0 0 1024 1024" version="1.1" xmlns="http://www.w3.org/2000/svg" p-id="21437" xmlns:xlink="http://www.w3.org/1999/xlink" width="200" height="200"><defs><style type="text/css"></style></defs><path d="M849.92 491.52c-7.168 0-14.336 1.024-21.504 3.072C791.552 357.376 665.6 256 517.12 256c-146.432 0-270.336 98.304-309.248 232.448-6.144-1.024-12.288-2.048-18.432-2.048-51.2 0-92.16 40.96-92.16 92.16s40.96 92.16 92.16 92.16c6.144 0 12.288-1.024 18.432-2.048C246.784 802.816 370.688 901.12 517.12 901.12c145.408 0 268.288-96.256 308.224-228.352 8.192 2.048 15.36 3.072 24.576 3.072 51.2 0 92.16-40.96 92.16-92.16s-40.96-92.16-92.16-92.16z" fill="#FEE0AE" p-id="21438"></path><path d="M517.12 911.36c-144.384 0-273.408-94.208-316.416-231.424-4.096 0-7.168 1.024-11.264 1.024-56.32 0-102.4-46.08-102.4-102.4s46.08-102.4 102.4-102.4c4.096 0 7.168 0 11.264 1.024C243.712 339.968 372.736 245.76 517.12 245.76c146.432 0 276.48 97.28 318.464 236.544 5.12-1.024 9.216-1.024 14.336-1.024 56.32 0 102.4 46.08 102.4 102.4s-46.08 102.4-102.4 102.4c-6.144 0-11.264 0-17.408-1.024C787.456 820.224 661.504 911.36 517.12 911.36zM215.04 657.408l3.072 9.216C256 798.72 378.88 890.88 517.12 890.88s259.072-89.088 299.008-221.184l3.072-9.216 9.216 3.072c7.168 2.048 14.336 3.072 21.504 3.072 45.056 0 81.92-36.864 81.92-81.92s-36.864-81.92-81.92-81.92c-6.144 0-12.288 1.024-19.456 2.048l-9.216 2.048-3.072-9.216C782.336 361.472 657.408 266.24 517.12 266.24 378.88 266.24 256 358.4 217.088 491.52l-2.048 8.192-9.216-2.048c-5.12-1.024-11.264-2.048-16.384-2.048-45.056 0-81.92 36.864-81.92 81.92s36.864 81.92 81.92 81.92c5.12 0 10.24-1.024 16.384-2.048h9.216z" fill="#1C1C1C" p-id="21439"></path><path d="M435.2 542.72c-6.144 0-10.24-4.096-10.24-10.24 0-21.504-29.696-39.936-64.512-39.936S296.96 510.976 296.96 532.48c0 6.144-4.096 10.24-10.24 10.24s-10.24-4.096-10.24-10.24c0-33.792 36.864-60.416 84.992-60.416s84.992 26.624 84.992 60.416c-1.024 6.144-5.12 10.24-11.264 10.24zM757.76 542.72c-6.144 0-10.24-4.096-10.24-10.24 0-21.504-29.696-39.936-64.512-39.936s-64.512 18.432-64.512 39.936c0 6.144-4.096 10.24-10.24 10.24s-10.24-4.096-10.24-10.24c0-33.792 36.864-60.416 84.992-60.416 47.104 0 84.992 26.624 84.992 60.416 0 6.144-4.096 10.24-10.24 10.24zM514.048 798.72c-75.776 0-138.24-46.08-138.24-102.4 0-6.144 4.096-10.24 10.24-10.24s10.24 4.096 10.24 10.24c0 45.056 53.248 81.92 117.76 81.92s117.76-36.864 117.76-81.92c0-6.144 4.096-10.24 10.24-10.24s10.24 4.096 10.24 10.24c0 56.32-62.464 102.4-138.24 102.4zM450.56 235.52c-3.072 0-5.12-1.024-7.168-3.072-4.096-4.096-4.096-10.24 0-14.336 6.144-6.144 22.528-26.624 19.456-39.936 0-2.048-2.048-9.216-16.384-14.336-20.48-8.192-26.624-20.48-28.672-29.696-5.12-27.648 21.504-55.296 24.576-58.368 4.096-4.096 10.24-4.096 14.336 0 4.096 4.096 4.096 10.24 0 14.336-6.144 6.144-22.528 26.624-19.456 39.936 0 2.048 2.048 9.216 16.384 14.336 20.48 8.192 26.624 20.48 28.672 29.696 5.12 27.648-21.504 55.296-24.576 58.368-2.048 2.048-4.096 3.072-7.168 3.072zM522.24 235.52c-3.072 0-5.12-1.024-7.168-3.072-4.096-4.096-4.096-10.24 0-14.336 6.144-6.144 22.528-26.624 19.456-39.936 0-2.048-2.048-9.216-16.384-14.336-20.48-8.192-26.624-20.48-28.672-29.696-5.12-27.648 21.504-55.296 24.576-58.368 4.096-4.096 10.24-4.096 14.336 0 4.096 4.096 4.096 10.24 0 14.336-6.144 6.144-22.528 26.624-19.456 39.936 0 2.048 2.048 9.216 16.384 14.336 20.48 8.192 26.624 20.48 28.672 29.696 5.12 27.648-21.504 55.296-24.576 58.368-2.048 2.048-4.096 3.072-7.168 3.072z" fill="#1C1C1C" p-id="21440"></path><path d="M583.68 235.52c-3.072 0-5.12-1.024-7.168-3.072-4.096-4.096-4.096-10.24 0-14.336 6.144-6.144 22.528-26.624 19.456-39.936 0-2.048-2.048-9.216-16.384-14.336-20.48-8.192-26.624-20.48-28.672-29.696-5.12-27.648 21.504-55.296 24.576-58.368 4.096-4.096 10.24-4.096 14.336 0 4.096 4.096 4.096 10.24 0 14.336-6.144 6.144-22.528 26.624-19.456 39.936 0 2.048 2.048 9.216 16.384 14.336 20.48 8.192 26.624 20.48 28.672 29.696 5.12 27.648-21.504 55.296-24.576 58.368-2.048 2.048-4.096 3.072-7.168 3.072z" fill="#1C1C1C" p-id="21441"></path></svg>