<?xml version="1.0" standalone="no"?><!DOCTYPE svg PUBLIC "-//W3C//DTD SVG 1.1//EN" "http://www.w3.org/Graphics/SVG/1.1/DTD/svg11.dtd"><svg t="1646014192240" class="icon" viewBox="0 0 1024 1024" version="1.1" xmlns="http://www.w3.org/2000/svg" p-id="7286" xmlns:xlink="http://www.w3.org/1999/xlink" width="200" height="200"><defs><style type="text/css"></style></defs><path d="M430.920566 797.059459h199.264864v127.308109c0 55.024778-44.613189 99.632432-99.632432 99.632432-55.030314 0-99.632432-44.607654-99.632432-99.632432v-127.308109z" fill="#C5AC95" p-id="7287"></path><path d="M139.102706 585.694789c0 48.698119 39.476584 88.174703 88.174703 88.174703 48.692584 0 88.169168-39.476584 88.169167-88.174703 0-48.692584-39.476584-88.169168-88.174702-88.169167-48.692584 0-88.169168 39.476584-88.169168 88.174702z" fill="#C9AB90" p-id="7288"></path><path d="M495.39382 166.054054h11.07027c158.963546 0 287.827027 128.863481 287.827027 287.827027v309.967568c0 97.822443-79.301881 177.124324-177.124324 177.124324H384.691117c-97.822443 0-177.124324-79.301881-177.124324-177.124324V453.881081c0-158.963546 128.863481-287.827027 287.827027-287.827027z" fill="#EBD3BD" p-id="7289"></path><path d="M329.339766 752.778378c0 61.141103 49.5616 110.702703 110.702702 110.702703s110.702703-49.5616 110.702703-110.702703H329.339766z" fill="#E89E80" p-id="7290"></path><path d="M251.847874 664.216216m27.675675 0l332.108109 0q27.675676 0 27.675675 27.675676l0 0q0 27.675676-27.675675 27.675676l-332.108109 0q-27.675676 0-27.675675-27.675676l0 0q0-27.675676 27.675675-27.675676Z" fill="#4D4132" p-id="7291"></path><path d="M425.025647 509.232432a34.970984 34.970984 0 0 1 32.856562 23.026163l36.542962 100.490378a68.580324 68.580324 0 0 1-64.428973 92.010551h-15.481773a68.580324 68.580324 0 0 1-63.465859-94.540108l40.218292-98.31507A36.482076 36.482076 0 0 1 425.025647 509.232432z" fill="#E89E80" p-id="7292"></path><path d="M726.906382 580.159654c0 48.698119 39.476584 88.174703 88.169167 88.174703s88.174703-39.476584 88.174703-88.174703c0-48.692584-39.482119-88.169168-88.174703-88.169168s-88.174703 39.476584-88.174702 88.174703z" fill="#EBD3BD" p-id="7293"></path><path d="M775.886793 575.8976a39.188757 39.188757 0 1 0 78.377513 0.016605 39.188757 39.188757 0 0 0-78.377513-0.016605z" fill="#E89E80" p-id="7294"></path><path d="M229.707333 504.582919a78.377514 78.377514 0 1 0 156.749492 0c0-43.284757-35.092757-78.377514-78.377513-78.377514S229.707333 461.298162 229.707333 504.582919z" fill="#FFFFFF" p-id="7295"></path><path d="M262.918144 504.776649a34.290162 34.290162 0 1 0 68.580324 0 34.290162 34.290162 0 0 0-68.580324 0z" fill="#514141" p-id="7296"></path><path d="M500.928955 504.582919c0 43.284757 35.092757 78.371978 78.377513 78.371978s78.371978-35.092757 78.371979-78.377513S622.58569 426.205405 579.300933 426.205405 500.928955 461.298162 500.928955 504.582919z" fill="#FFFFFF" p-id="7297"></path><path d="M534.139766 504.776649a34.290162 34.290162 0 1 0 68.580324 0 34.290162 34.290162 0 0 0-68.580324 0z" fill="#514141" p-id="7298"></path><path d="M218.637063 398.52973m27.675676 0l121.772973 0q27.675676 0 27.675675 27.675675l0 0q0 27.675676-27.675675 27.675676l-121.772973 0q-27.675676 0-27.675676-27.675676l0 0q0-27.675676 27.675676-27.675675Z" fill="#4D4132" p-id="7299"></path><path d="M484.323549 398.52973m27.675676 0l121.772973 0q27.675676 0 27.675676 27.675675l0 0q0 27.675676-27.675676 27.675676l-121.772973 0q-27.675676 0-27.675676-27.675676l0 0q0-27.675676 27.675676-27.675675Z" fill="#4D4132" p-id="7300"></path><path d="M161.077193 460.296303C121.168868 416.125924 96.86409 357.5808 96.86409 293.362162 96.86409 155.797449 208.380458 44.281081 345.945171 44.281081a247.968519 247.968519 0 0 1 147.943092 48.675978c-38.856649 170.686962-164.382443 308.650205-328.139416 365.745125z" fill="#4D4132" p-id="7301"></path><path d="M540.029149 6.453968c182.570897-28.782703 354.021708 95.176649 382.937254 276.856389 13.489124 84.753989-6.420757 167.100195-50.037621 233.759827C641.942058 476.331589 444.703052 318.547027 357.015441 98.591827 405.115766 51.172324 468.066858 17.795459 540.029149 6.453968z" fill="#4D4132" p-id="7302"></path></svg>