<?xml version="1.0" standalone="no"?><!DOCTYPE svg PUBLIC "-//W3C//DTD SVG 1.1//EN" "http://www.w3.org/Graphics/SVG/1.1/DTD/svg11.dtd"><svg t="1646014176225" class="icon" viewBox="0 0 1024 1024" version="1.1" xmlns="http://www.w3.org/2000/svg" p-id="6538" xmlns:xlink="http://www.w3.org/1999/xlink" width="200" height="200"><defs><style type="text/css"></style></defs><path d="M368.983535 753.135484h237.832259v151.948387c0 65.674735-53.248 118.916129-118.916129 118.916129-65.681342 0-118.916129-53.241394-118.91613-118.916129v-151.948387z" fill="#C5AC95" p-id="6539"></path><path d="M20.6848 500.861523c0 58.123561 47.117213 105.240774 105.240774 105.240774 58.116955 0 105.234168-47.117213 105.234168-105.240774 0-58.116955-47.117213-105.234168-105.240774-105.234168-58.116955 0-105.234168 47.117213-105.234168 105.240774z" fill="#C9AB90" p-id="6540"></path><path d="M9.909677 280.774194a191.587097 188.283871 0 1 0 383.174194 0 191.587097 188.283871 0 1 0-383.174194 0Z" fill="#BBABA5" p-id="6541"></path><path d="M624.309677 478.967742a184.980645 181.677419 0 1 0 369.961291 0 184.980645 181.677419 0 1 0-369.961291 0Z" fill="#BBABA5" p-id="6542"></path><path d="M445.935484 0h13.212903c189.730684 0 343.535484 153.8048 343.535484 343.535484v369.96129c0 116.755819-94.650632 211.406452-211.406452 211.406452H313.806452c-116.755819 0-211.406452-94.650632-211.406452-211.406452V343.535484C102.4 153.8048 256.2048 0 445.935484 0z" fill="#EBD3BD" p-id="6543"></path><path d="M696.980645 267.56129a158.554839 155.251613 0 1 0 317.109678 0 158.554839 155.251613 0 1 0-317.109678 0Z" fill="#BBABA5" p-id="6544"></path><path d="M722.256929 494.255071c0 58.123561 47.117213 105.240774 105.234168 105.240774s105.240774-47.117213 105.240774-105.240774c0-58.116955-47.123819-105.234168-105.240774-105.234168s-105.240774 47.117213-105.240774 105.240774z" fill="#EBD3BD" p-id="6545"></path><path d="M780.717419 489.168103a46.773677 46.773677 0 1 0 93.547355 0.01982 46.773677 46.773677 0 0 0-93.547355-0.01982z" fill="#E89E80" p-id="6546"></path><path d="M125.918968 388.492387a93.547355 93.547355 0 1 0 187.088103 0c0-51.662452-41.884903-93.540748-93.547355-93.540748s-93.540748 41.884903-93.540748 93.547355z" fill="#FFFFFF" p-id="6547"></path><path d="M172.692645 394.339097a40.926968 40.926968 0 1 0 81.853936 0 40.926968 40.926968 0 0 0-81.853936 0z" fill="#514141" p-id="6548"></path><path d="M452.541935 390.837677c0 51.662452 41.884903 93.540748 93.547355 93.540749s93.540748-41.884903 93.540749-93.547355S597.745135 297.290323 546.082684 297.290323 452.541935 339.175226 452.541935 390.837677z" fill="#FFFFFF" p-id="6549"></path><path d="M498.787097 391.068903a40.926968 40.926968 0 1 0 81.853935 0 40.926968 40.926968 0 0 0-81.853935 0z" fill="#514141" p-id="6550"></path><path d="M148.874967 183.66108m35.924871 16.752042l119.749571 55.840142q35.924871 16.752043 19.172828 52.676914l0 0q-16.752043 35.924871-52.676914 19.172829l-119.74957-55.840142q-35.924871-16.752043-19.172829-52.676914l0 0q16.752043-35.924871 52.676914-19.172829Z" fill="#BBABA5" p-id="6551"></path><path d="M406.583926 258.932619m38.103173-10.92591l152.412693-43.703636q38.103173-10.925909 49.029083 27.177264l0 0q10.925909 38.103173-27.177264 49.029083l-152.412694 43.703636q-38.103173 10.925909-49.029082-27.177264l0 0q-10.925909-38.103173 27.177264-49.029083Z" fill="#BBABA5" p-id="6552"></path><path d="M247.741935 706.890323c0 72.974865 59.154168 132.129032 132.129033 132.129032s132.129032-59.154168 132.129032-132.129032H247.741935z" fill="#E89E80" p-id="6553"></path></svg>