<?xml version="1.0" standalone="no"?><!DOCTYPE svg PUBLIC "-//W3C//DTD SVG 1.1//EN" "http://www.w3.org/Graphics/SVG/1.1/DTD/svg11.dtd"><svg t="1646014468469" class="icon" viewBox="0 0 1024 1024" version="1.1" xmlns="http://www.w3.org/2000/svg" p-id="10880" xmlns:xlink="http://www.w3.org/1999/xlink" width="200" height="200"><defs><style type="text/css"></style></defs><path d="M1024 0v1.024a507.757714 507.757714 0 0 1-69.12 255.780571v-0.146285l10.898286 19.675428c34.669714 66.121143 54.418286 139.117714 57.782857 213.723429l0.438857 22.454857A511.780571 511.780571 0 0 1 512 1024a511.707429 511.707429 0 0 1-512-511.488c0-89.892571 23.844571-178.176 69.12-255.853714A507.757714 507.757714 0 0 1 0 0.950857L0.073143 0A511.707429 511.707429 0 0 0 217.234286 94.793143 509.293714 509.293714 0 0 1 512 0.950857a509.293714 509.293714 0 0 1 294.765714 93.769143A511.707429 511.707429 0 0 0 1024 0zM220.306286 365.421714a144.091429 144.091429 0 0 0 128.731428 209.261715 144.091429 144.091429 0 0 0 128.804572-78.994286z m583.387428 0l-257.536 130.194286a144.310857 144.310857 0 0 0 257.462857-130.194286z" fill="#2E3B4D" p-id="10881"></path></svg>