<?xml version="1.0" standalone="no"?><!DOCTYPE svg PUBLIC "-//W3C//DTD SVG 1.1//EN" "http://www.w3.org/Graphics/SVG/1.1/DTD/svg11.dtd"><svg t="1650266885115" class="icon" viewBox="0 0 1024 1024" version="1.1" xmlns="http://www.w3.org/2000/svg" p-id="11146" xmlns:xlink="http://www.w3.org/1999/xlink" width="30" height="30"><defs><style type="text/css">@font-face { font-family: feedback-iconfont; src: url("//at.alicdn.com/t/font_1031158_u69w8yhxdu.woff2?t=1630033759944") format("woff2"), url("//at.alicdn.com/t/font_1031158_u69w8yhxdu.woff?t=1630033759944") format("woff"), url("//at.alicdn.com/t/font_1031158_u69w8yhxdu.ttf?t=1630033759944") format("truetype"); }
</style></defs><path d="M882.72 771.232c2.72 9.504 5.12 21.568 7.168 36.16s3.072 29.376 3.072 44.288c0 14.944-1.184 29.024-3.584 42.272s-5.952 23.264-10.72 30.048c-3.392 4.736-12.096 9.312-26.048 13.728s-31.52 8.48-52.64 12.224c-21.12 3.744-44.64 7.296-70.528 10.688s-51.776 6.272-77.664 8.64c-25.888 2.368-51.104 4.064-75.648 5.088s-45.984 1.536-64.384 1.536-39.68-0.672-63.872-2.048-49.056-3.072-74.624-5.088-50.944-4.416-76.128-7.136a1287.968 1287.968 0 0 1-122.144-18.816c-14.656-3.072-23.68-6.272-27.104-9.696-6.144-4.768-10.88-19.84-14.304-45.312s-2.048-58.56 4.096-99.264c3.424-23.072 12.768-40.736 28.096-52.96s33.056-21.888 53.152-29.024c20.096-7.136 41.216-13.408 63.36-18.848s41.408-13.568 57.76-24.448c12.928-8.128 23.008-15.968 30.144-23.424s12.256-14.944 15.328-22.4c3.072-7.488 4.608-15.264 4.608-23.424s-0.352-17.312-1.024-27.488c-1.344-14.944-6.304-26.464-14.816-34.624s-17.888-16.64-28.096-25.472c-5.44-4.064-10.048-10.016-13.824-17.824s-7.296-15.776-10.72-23.936a250.752 250.752 0 0 1-9.184-29.536 89.6 89.6 0 0 1-6.144-7.136c-2.048-3.392-4.448-7.968-7.168-13.76s-5.792-14.08-9.184-24.928c-3.424-10.848-5.6-20.544-6.656-29.024s-0.864-15.776 0.512-21.888c0.672-7.488 2.368-13.92 5.088-19.328 0-23.776 1.376-47.52 4.096-71.296 2.72-19.68 7.136-41.088 13.28-64.16s16-43.808 29.632-62.112c12.256-16.992 25.568-31.072 39.84-42.272s29.152-19.872 44.48-25.952c15.328-6.112 30.816-10.368 46.496-12.736s30.688-3.552 44.992-3.552c15.68 1.376 28.448 3.232 38.336 5.6s17.888 5.28 24 8.64c6.144 3.392 11.392 7.456 15.84 12.224s9.024 9.504 13.792 14.24h19.424c6.144 0 12.096 0.832 17.888 2.56s11.584 4.928 17.376 9.664c5.792 4.768 12.096 11.552 18.912 20.384 15.68 20.384 27.264 42.592 34.752 66.688s12.96 47.008 16.352 68.736c3.424 25.12 5.472 49.888 6.144 74.336 1.344 3.392 2.368 7.488 3.072 12.224s1.184 10.528 1.504 17.312c0.352 6.784-0.16 15.264-1.504 25.472-1.376 13.568-3.424 24.256-6.144 32.064s-5.792 13.76-9.184 17.824a31.456 31.456 0 0 1-11.264 10.176 256.896 256.896 0 0 1-9.184 29.536c-3.424 8.128-6.976 16.128-10.72 23.936s-8.352 13.76-13.792 17.824c-11.584 9.504-21.12 17.472-28.64 23.936s-12.608 17.472-15.328 33.088c-2.048 9.504-2.72 19.04-2.048 28.512s3.232 19.2 7.648 29.024c4.448 9.856 11.584 19.168 21.472 28s23.712 16.64 41.408 23.424c15.68 6.112 32.864 11.712 51.616 16.8s36.8 10.88 54.176 17.312c17.376 6.464 32.896 14.784 46.528 24.96s23.168 23.424 28.608 39.712zM554.624 737.6c2.048-4.064 2.208-8.32 0.512-12.736s-4.256-8.64-7.648-12.736a212.864 212.864 0 0 0-12.256-13.248h-47.04a90.464 90.464 0 0 0-11.232 13.248c-2.72 3.392-4.96 7.136-6.656 11.2s-1.536 7.808 0.512 11.2c4.768 9.504 8.864 17.824 12.256 24.96s7.168 12.736 11.232 16.8c-1.376 6.112-3.424 14.752-6.144 25.952s-5.28 22.752-7.648 34.624c-2.4 11.904-4.448 23.104-6.144 33.6s-2.56 18.496-2.56 23.936c0 3.392 1.504 7.456 4.576 12.192s6.656 9.696 10.752 14.784c4.096 5.088 8.352 9.312 12.768 12.736s8.352 5.088 11.744 5.088 7.488-1.696 12.256-5.088c4.768-3.424 9.376-7.296 13.792-11.712s8.192-9.152 11.232-14.24c3.072-5.088 4.608-9.312 4.608-12.736 0-4.064-1.024-11.04-3.072-20.864s-4.256-20.896-6.624-33.088c-2.4-12.224-4.96-24.096-7.68-35.648s-5.088-20.704-7.168-27.52c4.096-3.392 8.032-8.32 11.776-14.752s8.352-15.104 13.792-25.984z" p-id="11147" fill="#13227a"></path></svg>