<?xml version="1.0" standalone="no"?><!DOCTYPE svg PUBLIC "-//W3C//DTD SVG 1.1//EN" "http://www.w3.org/Graphics/SVG/1.1/DTD/svg11.dtd"><svg t="1659003993367" class="icon" viewBox="0 0 1024 1024" version="1.1" xmlns="http://www.w3.org/2000/svg" p-id="17220" xmlns:xlink="http://www.w3.org/1999/xlink" width="30" height="30"><defs><style type="text/css">@font-face { font-family: feedback-iconfont; src: url("//at.alicdn.com/t/font_1031158_u69w8yhxdu.woff2?t=1630033759944") format("woff2"), url("//at.alicdn.com/t/font_1031158_u69w8yhxdu.woff?t=1630033759944") format("woff"), url("//at.alicdn.com/t/font_1031158_u69w8yhxdu.ttf?t=1630033759944") format("truetype"); }
</style></defs><path d="M960 1024H64a64 64 0 0 1-64-64V64a64 64 0 0 1 64-64h896a64 64 0 0 1 64 64v896a64 64 0 0 1-64 64zM896 192a64 64 0 0 0-64-64H192a64 64 0 0 0-64 64v640a64 64 0 0 0 64 64h640a64 64 0 0 0 64-64V192z m-512 512L192 448h128l126.464 168.576L704 256h128l-320 448H384z" p-id="17221" fill="#8a8a8a"></path></svg>