<?xml version="1.0" standalone="no"?><!DOCTYPE svg PUBLIC "-//W3C//DTD SVG 1.1//EN" "http://www.w3.org/Graphics/SVG/1.1/DTD/svg11.dtd"><svg t="1659004027023" class="icon" viewBox="0 0 1024 1024" version="1.1" xmlns="http://www.w3.org/2000/svg" p-id="18387" xmlns:xlink="http://www.w3.org/1999/xlink" width="30" height="30"><defs><style type="text/css">@font-face { font-family: feedback-iconfont; src: url("//at.alicdn.com/t/font_1031158_u69w8yhxdu.woff2?t=1630033759944") format("woff2"), url("//at.alicdn.com/t/font_1031158_u69w8yhxdu.woff?t=1630033759944") format("woff"), url("//at.alicdn.com/t/font_1031158_u69w8yhxdu.ttf?t=1630033759944") format("truetype"); }
</style></defs><path d="M928 224H768v-56c0-4.4-3.6-8-8-8h-56c-4.4 0-8 3.6-8 8v56H548v-56c0-4.4-3.6-8-8-8h-56c-4.4 0-8 3.6-8 8v56H328v-56c0-4.4-3.6-8-8-8h-56c-4.4 0-8 3.6-8 8v56H96c-17.7 0-32 14.3-32 32v576c0 17.7 14.3 32 32 32h832c17.7 0 32-14.3 32-32V256c0-17.7-14.3-32-32-32zM424 688c0 4.4-3.6 8-8 8H232c-4.4 0-8-3.6-8-8v-48c0-4.4 3.6-8 8-8h184c4.4 0 8 3.6 8 8v48z m0-136c0 4.4-3.6 8-8 8H232c-4.4 0-8-3.6-8-8v-48c0-4.4 3.6-8 8-8h184c4.4 0 8 3.6 8 8v48z m374.5-91.3l-165 228.7c-6.4 8.8-19.4 8.8-25.8 0L493.5 531.2c-3.8-5.3 0-12.7 6.5-12.7h54.9c5.1 0 9.9 2.5 12.9 6.6l52.8 73.1 103.7-143.7c3-4.2 7.8-6.6 12.9-6.6H792c6.5 0.1 10.3 7.5 6.5 12.8z" p-id="18388" fill="#8a8a8a"></path></svg>