<?xml version="1.0" standalone="no"?><!DOCTYPE svg PUBLIC "-//W3C//DTD SVG 1.1//EN" "http://www.w3.org/Graphics/SVG/1.1/DTD/svg11.dtd"><svg t="1659004366803" class="icon" viewBox="0 0 1024 1024" version="1.1" xmlns="http://www.w3.org/2000/svg" p-id="38763" xmlns:xlink="http://www.w3.org/1999/xlink" width="30" height="30"><defs><style type="text/css">@font-face { font-family: feedback-iconfont; src: url("//at.alicdn.com/t/font_1031158_u69w8yhxdu.woff2?t=1630033759944") format("woff2"), url("//at.alicdn.com/t/font_1031158_u69w8yhxdu.woff?t=1630033759944") format("woff"), url("//at.alicdn.com/t/font_1031158_u69w8yhxdu.ttf?t=1630033759944") format("truetype"); }
</style></defs><path d="M768 1024v-85.333333h170.666667v-170.666667h85.333333v256h-256z m170.666667-938.666667h-170.666667V0h256v256h-85.333333V85.333333z m-231.253334 562.346667l113.066667 112.853333-60.586667 60.330667-112.64-112.853333a303.402667 303.402667 0 1 1 60.16-60.330667zM469.333333 255.658667A213.674667 213.674667 0 1 0 683.093333 469.333333 213.632 213.632 0 0 0 469.333333 255.658667zM85.333333 256H0V0h256v85.333333H85.333333v170.666667z m0 682.666667h170.666667v85.333333H0v-256h85.333333v170.666667z" fill="#186db7" p-id="38764"></path></svg>