<?xml version="1.0" standalone="no"?><!DOCTYPE svg PUBLIC "-//W3C//DTD SVG 1.1//EN" "http://www.w3.org/Graphics/SVG/1.1/DTD/svg11.dtd"><svg t="1659004239506" class="icon" viewBox="0 0 1024 1024" version="1.1" xmlns="http://www.w3.org/2000/svg" p-id="32704" xmlns:xlink="http://www.w3.org/1999/xlink" width="30" height="30"><defs><style type="text/css">@font-face { font-family: feedback-iconfont; src: url("//at.alicdn.com/t/font_1031158_u69w8yhxdu.woff2?t=1630033759944") format("woff2"), url("//at.alicdn.com/t/font_1031158_u69w8yhxdu.woff?t=1630033759944") format("woff"), url("//at.alicdn.com/t/font_1031158_u69w8yhxdu.ttf?t=1630033759944") format("truetype"); }
</style></defs><path d="M853.344 341.344C853.344 294.4 814.944 256 768 256s-85.344 38.4-85.344 85.344 38.4 85.344 85.344 85.344 85.344-38.4 85.344-85.344z" p-id="32705" fill="#8a8a8a"></path><path d="M0 85.344v853.344h512v-85.344H85.344V742.4l256-256L512 657.056l59.744-59.744-230.4-230.4-256 256V170.656h853.344v298.656l85.344 85.344V85.312z" p-id="32706" fill="#8a8a8a"></path><path d="M951.456 840.544L1011.2 780.8l-200.544-200.544-200.544 200.544 59.744 59.744L768 742.4v238.944h85.344V742.4z" p-id="32707" fill="#8a8a8a"></path></svg>