<?xml version="1.0" standalone="no"?><!DOCTYPE svg PUBLIC "-//W3C//DTD SVG 1.1//EN" "http://www.w3.org/Graphics/SVG/1.1/DTD/svg11.dtd"><svg t="1659003982539" class="icon" viewBox="0 0 1024 1024" version="1.1" xmlns="http://www.w3.org/2000/svg" p-id="16989" xmlns:xlink="http://www.w3.org/1999/xlink" width="30" height="30"><defs><style type="text/css">@font-face { font-family: feedback-iconfont; src: url("//at.alicdn.com/t/font_1031158_u69w8yhxdu.woff2?t=1630033759944") format("woff2"), url("//at.alicdn.com/t/font_1031158_u69w8yhxdu.woff?t=1630033759944") format("woff"), url("//at.alicdn.com/t/font_1031158_u69w8yhxdu.ttf?t=1630033759944") format("truetype"); }
</style></defs><path d="M170.666667 725.333333V384H85.333333V298.666667h170.666667v426.666666H170.666667m768-85.333333a85.333333 85.333333 0 0 1-85.333334 85.333333h-170.666666v-85.333333h170.666666v-85.333333h-85.333333v-85.333334h85.333333V384h-170.666666V298.666667h170.666666a85.333333 85.333333 0 0 1 85.333334 85.333333v64a64 64 0 0 1-64 64 64 64 0 0 1 64 64V640m-341.333334 0v85.333333H341.333333v-170.666666a85.333333 85.333333 0 0 1 85.333334-85.333334h85.333333V384H341.333333V298.666667h170.666667a85.333333 85.333333 0 0 1 85.333333 85.333333v85.333333a85.333333 85.333333 0 0 1-85.333333 85.333334h-85.333333v85.333333h170.666666z" fill="#8a8a8a" p-id="16990"></path></svg>