<?xml version="1.0" standalone="no"?><!DOCTYPE svg PUBLIC "-//W3C//DTD SVG 1.1//EN" "http://www.w3.org/Graphics/SVG/1.1/DTD/svg11.dtd"><svg t="1659003954104" class="icon" viewBox="0 0 1024 1024" version="1.1" xmlns="http://www.w3.org/2000/svg" p-id="13244" xmlns:xlink="http://www.w3.org/1999/xlink" width="30" height="30"><defs><style type="text/css">@font-face { font-family: feedback-iconfont; src: url("//at.alicdn.com/t/font_1031158_u69w8yhxdu.woff2?t=1630033759944") format("woff2"), url("//at.alicdn.com/t/font_1031158_u69w8yhxdu.woff?t=1630033759944") format("woff"), url("//at.alicdn.com/t/font_1031158_u69w8yhxdu.ttf?t=1630033759944") format("truetype"); }
</style></defs><path d="M965.504 292.565333c0-16.170667 12.970667-29.269333 29.269333-29.269333 16.128 0 29.226667 13.312 29.226667 29.269333v438.869334a29.184 29.184 0 0 1-29.269333 29.269333 29.44 29.44 0 0 1-29.269334-29.269333V292.565333zM87.765333 438.869333a87.765333 87.765333 0 1 1 0 175.530667 87.765333 87.765333 0 0 1 0-175.530667z m321.834667 0a87.765333 87.765333 0 1 1 0 175.530667 87.765333 87.765333 0 0 1 0-175.530667z m321.834667 0a87.765333 87.765333 0 1 1 0 175.530667 87.765333 87.765333 0 0 1 0-175.530667z" p-id="13245" fill="#8a8a8a"></path></svg>