<?xml version="1.0" standalone="no"?><!DOCTYPE svg PUBLIC "-//W3C//DTD SVG 1.1//EN" "http://www.w3.org/Graphics/SVG/1.1/DTD/svg11.dtd"><svg t="1659004638079" class="icon" viewBox="0 0 1024 1024" version="1.1" xmlns="http://www.w3.org/2000/svg" p-id="50917" xmlns:xlink="http://www.w3.org/1999/xlink" width="30" height="30"><defs><style type="text/css">@font-face { font-family: feedback-iconfont; src: url("//at.alicdn.com/t/font_1031158_u69w8yhxdu.woff2?t=1630033759944") format("woff2"), url("//at.alicdn.com/t/font_1031158_u69w8yhxdu.woff?t=1630033759944") format("woff"), url("//at.alicdn.com/t/font_1031158_u69w8yhxdu.ttf?t=1630033759944") format("truetype"); }
</style></defs><path d="M215.936 215.936v113.194667a22.613333 22.613333 0 1 1-45.269333 0V193.28A22.613333 22.613333 0 0 1 193.28 170.666667h135.893333a22.613333 22.613333 0 0 1 0 45.226666H215.893333z m627.370667-38.656c4.266667 4.266667 6.656 10.026667 6.656 16.042667v135.850666a22.613333 22.613333 0 0 1-45.312 0V215.978667h-113.194667a22.656 22.656 0 1 1 0-45.312h135.850667a22.613333 22.613333 0 0 1 16 6.613333zM215.936 804.693333h113.237333a22.613333 22.613333 0 1 1 0 45.269334H193.28a22.613333 22.613333 0 0 1-22.613333-22.613334v-135.850666a22.613333 22.613333 0 1 1 45.269333 0v113.194666z m627.370667 38.656c-4.266667 4.266667-9.984 6.656-16 6.613334h-135.850667a22.613333 22.613333 0 1 1 0-45.226667h113.194667v-113.237333a22.613333 22.613333 0 1 1 45.269333 0v135.850666c0 5.973333-2.346667 11.733333-6.613333 16z m-536.746667-151.893333h407.552a22.613333 22.613333 0 0 1 0 45.312H306.517333a22.613333 22.613333 0 0 1 0-45.269333z m0-90.538667h407.552a22.613333 22.613333 0 0 1 0 45.269334H306.517333a22.613333 22.613333 0 1 1 0-45.269334z m271.658667-113.194666h135.850666a22.613333 22.613333 0 0 1 0 45.312h-135.850666a22.613333 22.613333 0 0 1 0-45.312z m0-90.538667h135.850666a22.613333 22.613333 0 0 1 0 45.269333h-135.850666a22.613333 22.613333 0 0 1 0-45.269333z m0-90.581333h135.850666a22.613333 22.613333 0 0 1 0 45.269333h-135.850666a22.613333 22.613333 0 0 1 0-45.269333zM374.442667 510.293333V329.173333H329.173333v22.613334a22.613333 22.613333 0 0 1-45.312 0V306.517333a22.613333 22.613333 0 0 1 22.656-22.656h181.162667a22.613333 22.613333 0 0 1 22.613333 22.613334v45.312a22.613333 22.613333 0 0 1-45.269333 0v-22.613334H419.712v181.12h22.656a22.613333 22.613333 0 1 1 0 45.312H351.829333a22.613333 22.613333 0 0 1 0-45.312h22.613334z" fill="#707887" p-id="50918"></path></svg>
