<?xml version="1.0" standalone="no"?><!DOCTYPE svg PUBLIC "-//W3C//DTD SVG 1.1//EN" "http://www.w3.org/Graphics/SVG/1.1/DTD/svg11.dtd"><svg t="1659004185595" class="icon" viewBox="0 0 1024 1024" version="1.1" xmlns="http://www.w3.org/2000/svg" p-id="29488" xmlns:xlink="http://www.w3.org/1999/xlink" width="30" height="30"><defs><style type="text/css">@font-face { font-family: feedback-iconfont; src: url("//at.alicdn.com/t/font_1031158_u69w8yhxdu.woff2?t=1630033759944") format("woff2"), url("//at.alicdn.com/t/font_1031158_u69w8yhxdu.woff?t=1630033759944") format("woff"), url("//at.alicdn.com/t/font_1031158_u69w8yhxdu.ttf?t=1630033759944") format("truetype"); }
</style></defs><path d="M0 0h1024v1024H0z" fill="#FFFFFF" p-id="29489"></path><path d="M512 938.666667a426.666667 426.666667 0 1 1 426.666667-426.666667 427.136 427.136 0 0 1-426.666667 426.666667z m0-768a341.333333 341.333333 0 1 0 341.333333 341.333333 341.717333 341.717333 0 0 0-341.333333-341.333333z m154.666667 539.904a21.674667 21.674667 0 0 1-15.146667-6.144l-170.666667-170.666667a22.741333 22.741333 0 0 1-6.4-14.933333V277.333333a21.333333 21.333333 0 0 1 21.333334-21.333333h32.426666a21.333333 21.333333 0 0 1 21.333334 21.333333v219.306667l154.88 154.88a21.632 21.632 0 0 1 0 30.293333l-22.613334 22.613334a21.589333 21.589333 0 0 1-15.146666 6.144z" p-id="29490" data-spm-anchor-id="a313x.7781069.0.i18" class="selected" fill="#8a8a8a"></path></svg>