<?xml version="1.0" standalone="no"?><!DOCTYPE svg PUBLIC "-//W3C//DTD SVG 1.1//EN" "http://www.w3.org/Graphics/SVG/1.1/DTD/svg11.dtd"><svg t="1646395691187" class="icon" viewBox="0 0 1024 1024" version="1.1" xmlns="http://www.w3.org/2000/svg" p-id="1843" xmlns:xlink="http://www.w3.org/1999/xlink" width="200" height="200"><defs><style type="text/css"></style></defs><path d="M551.936 154.752a85.333333 85.333333 0 0 0-79.872 0l-234.666667 124.224A85.333333 85.333333 0 0 0 192 354.410667v315.2a85.333333 85.333333 0 0 0 45.397333 75.413333l234.666667 124.224a85.333333 85.333333 0 0 0 79.872 0l234.666667-124.224A85.333333 85.333333 0 0 0 832 669.610667V354.410667a85.333333 85.333333 0 0 0-45.397333-75.434667l-234.666667-124.224z m-119.786667-75.413333a170.666667 170.666667 0 0 1 159.701334 0l234.666666 124.224A170.666667 170.666667 0 0 1 917.333333 354.389333v315.221334a170.666667 170.666667 0 0 1-90.816 150.826666l-234.666666 124.224a170.666667 170.666667 0 0 1-159.701334 0l-234.666666-124.224A170.666667 170.666667 0 0 1 106.666667 669.610667V354.410667a170.666667 170.666667 0 0 1 90.816-150.826667l234.666666-124.245333z" p-id="1844" fill="#1296db"></path><path d="M553.450667 397.504a85.333333 85.333333 0 0 1-82.901334 0l-129.834666-72.128a42.666667 42.666667 0 1 0-41.429334 74.581333l129.834667 72.149334a170.666667 170.666667 0 0 0 165.76 0l129.834667-72.149334a42.666667 42.666667 0 1 0-41.429334-74.581333l-129.834666 72.128z" p-id="1845" fill="#1296db"></path><path d="M469.333333 490.666667v170.666666a42.666667 42.666667 0 1 0 85.333334 0v-170.666666a42.666667 42.666667 0 1 0-85.333334 0z" p-id="1846" fill="#1296db"></path></svg>