<?xml version="1.0" standalone="no"?><!DOCTYPE svg PUBLIC "-//W3C//DTD SVG 1.1//EN" "http://www.w3.org/Graphics/SVG/1.1/DTD/svg11.dtd"><svg t="1597239744357" class="icon" viewBox="0 0 1024 1024" version="1.1" xmlns="http://www.w3.org/2000/svg" p-id="1266" xmlns:xlink="http://www.w3.org/1999/xlink" width="200" height="200"><defs><style type="text/css"></style></defs><path d="M497 90c246.319 0 446 199.681 446 446S743.319 982 497 982 51 782.319 51 536 250.681 90 497 90z m0 197.711c-16.506 0-29.887 13.381-29.887 29.887v189.664H278.598l-0.706 0.009c-16.18 0.375-29.18 13.608-29.18 29.878 0 16.506 13.38 29.887 29.886 29.887h188.515v187.297l0.009 0.706c0.374 16.18 13.608 29.18 29.878 29.18 16.506 0 29.887-13.38 29.887-29.886l-0.001-187.297h188.457l0.706-0.008c16.18-0.375 29.18-13.608 29.18-29.879 0-16.505-13.38-29.886-29.886-29.886l-188.457-0.001V317.598l-0.008-0.706c-0.374-16.18-13.608-29.18-29.878-29.18z" fill="#333333" p-id="1267"></path></svg>