<?xml version="1.0" standalone="no"?><!DOCTYPE svg PUBLIC "-//W3C//DTD SVG 1.1//EN" "http://www.w3.org/Graphics/SVG/1.1/DTD/svg11.dtd"><svg t="1597157672815" class="icon" viewBox="0 0 1024 1024" version="1.1" xmlns="http://www.w3.org/2000/svg" p-id="930" xmlns:xlink="http://www.w3.org/1999/xlink" width="200" height="200"><defs><style type="text/css"></style></defs><path d="M761.215 165C815.23 165 859 209.038 859 263.385v131.23C859 448.962 815.23 493 761.215 493h-130.43C576.77 493 533 448.962 533 394.615v-131.23C533 209.038 576.77 165 630.785 165h130.43z" fill="#333333" p-id="931" data-spm-anchor-id="a313x.7781069.0.i1" class=""></path><path d="M392.515 531c53.85 0 97.485 44.038 97.485 98.385v131.23c0 54.31-43.635 98.385-97.485 98.385h-130.03C208.635 859 165 814.925 165 760.615v-131.23C165 575.038 208.635 531 262.485 531h130.03z m369 0c53.85 0 97.485 44.038 97.485 98.385v131.23c0 54.31-43.635 98.385-97.485 98.385h-130.03C577.635 859 534 814.925 534 760.615v-131.23C534 575.038 577.635 531 631.485 531h130.03z m-369-366c53.85 0 97.485 44.038 97.485 98.385v131.23C490 448.962 446.365 493 392.515 493h-130.03C208.635 493 165 448.962 165 394.615v-131.23C165 209.038 208.635 165 262.485 165h130.03z" fill="#1C9DFF" p-id="932" data-spm-anchor-id="a313x.7781069.0.i0" class=""></path></svg>