<?xml version="1.0" standalone="no"?><!DOCTYPE svg PUBLIC "-//W3C//DTD SVG 1.1//EN" "http://www.w3.org/Graphics/SVG/1.1/DTD/svg11.dtd"><svg t="1597239792516" class="icon" viewBox="0 0 1025 1024" version="1.1" xmlns="http://www.w3.org/2000/svg" p-id="1885" xmlns:xlink="http://www.w3.org/1999/xlink" width="200.1953125" height="200"><defs><style type="text/css"></style></defs><path d="M512.773 68c133.416 0 241.571 108.123 241.571 241.5 0 133.036-107.603 240.947-240.548 241.498l-0.667 0.002c-256.167 0-378.571 124.444-377.302 383.953 0.08 16.514-13.244 29.966-29.762 30.047-16.518 0.08-29.974-13.241-30.055-29.754-1.175-240.347 99.272-385.53 295.743-429.656l0.001 0.013C310.853 461.757 271.202 390.257 271.202 309.5c0-133.377 108.155-241.5 241.571-241.5zM913.1 866.1c16.513 0 29.9 13.386 29.9 29.9 0 16.513-13.387 29.9-29.9 29.9H627.798c-16.513 0-29.9-13.387-29.9-29.9 0-16.514 13.387-29.9 29.9-29.9H913.1z m0-131.1c16.513 0 29.9 13.386 29.9 29.9 0 16.513-13.387 29.9-29.9 29.9H627.798c-16.513 0-29.9-13.387-29.9-29.9 0-16.514 13.387-29.9 29.9-29.9H913.1z m0-131.1c16.513 0 29.9 13.386 29.9 29.9 0 16.513-13.387 29.9-29.9 29.9H627.798c-16.513 0-29.9-13.387-29.9-29.9 0-16.514 13.387-29.9 29.9-29.9H913.1z" fill="#333333" p-id="1886"></path></svg>