<?xml version="1.0" standalone="no"?><!DOCTYPE svg PUBLIC "-//W3C//DTD SVG 1.1//EN" "http://www.w3.org/Graphics/SVG/1.1/DTD/svg11.dtd"><svg t="1597239776539" class="icon" viewBox="0 0 1025 1024" version="1.1" xmlns="http://www.w3.org/2000/svg" p-id="1628" xmlns:xlink="http://www.w3.org/1999/xlink" width="200.1953125" height="200"><defs><style type="text/css"></style></defs><path d="M167.023 191c25.153 0 45.593 20.168 46.016 45.208l0.006 0.792v575h671.932C910.395 812 931 832.595 931 858c0 25.14-20.178 45.57-45.23 46H213.045c-50.326 0-91.22-40.37-92.033-90.479L121 812V237c0-25.405 20.605-46 46.023-46z m709.116 123.323a34.5 34.5 0 0 1 8.838 23.06V736.1c0 19.054-15.446 34.5-34.5 34.5H275.16c-19.054 0-34.5-15.446-34.5-34.5V599.011a34.5 34.5 0 0 1 9.564-23.842L450.75 365.445c12.43-13 32.764-14.27 46.714-2.915l120.576 98.137c13.176 10.725 32.2 10.26 44.837-1.095L827.418 311.72c14.173-12.735 35.986-11.57 48.721 2.603z" fill="#d4237a" p-id="1629"></path></svg>